<?xml version="1.0" encoding="utf-8"?>
<!-- Generator: Adobe Illustrator 19.2.0, SVG Export Plug-In . SVG Version: 6.00 Build 0)  -->
<svg version="1.1" id="Layer_1" xmlns="http://www.w3.org/2000/svg" xmlns:xlink="http://www.w3.org/1999/xlink" x="0px" y="0px"
	 viewBox="0 0 30 23.4" style="enable-background:new 0 0 30 23.4;" xml:space="preserve">
<style type="text/css">
	.st0{fill:#404041;stroke:#00ADEE;stroke-width:0.5;stroke-linecap:round;stroke-linejoin:round;stroke-miterlimit:10;}
</style>
<circle class="st0" cx="15" cy="11.7" r="11.4"/>
<g>
	<path id="LinkedIn" class="st0" d="M20.6,12.9v4.2h-2.4v-3.9c0-1-0.3-1.6-1.2-1.6c-0.7,0-1.1,0.4-1.2,0.9c-0.1,0.2-0.1,0.4-0.1,0.6
		v4h-2.4c0,0,0-6.6,0-7.3h2.4v1c0,0,0,0,0,0h0v0c0.3-0.5,0.9-1.2,2.2-1.2C19.4,9.6,20.6,10.7,20.6,12.9z M10.7,6.3
		c-0.8,0-1.4,0.5-1.4,1.3c0,0.7,0.5,1.3,1.3,1.3h0c0.8,0,1.4-0.6,1.4-1.3C12.1,6.8,11.6,6.3,10.7,6.3z M9.5,17.1h2.4V9.8H9.5V17.1z"
		/>
</g>
</svg>
