<svg id="Desktop" xmlns="http://www.w3.org/2000/svg" viewBox="0 0 33.72 36.6"><defs><style>.cls-1{fill:#fff;}</style></defs><title>github</title><path class="cls-1" d="M309.23,3090.7q0-.1,0-1.73t0-2.84l-0.74.13a9.38,9.38,0,0,1-1.77.11,13.52,13.52,0,0,1-2.22-.22,5,5,0,0,1-2.14-1,4.06,4.06,0,0,1-1.41-2l-0.32-.74a8,8,0,0,0-1-1.63,3.86,3.86,0,0,0-1.39-1.21l-0.22-.16a2.35,2.35,0,0,1-.42-0.38,1.75,1.75,0,0,1-.29-0.45,0.27,0.27,0,0,1,.16-0.37,2.07,2.07,0,0,1,.93-0.14l0.64,0.1a4.67,4.67,0,0,1,1.58.77,5.16,5.16,0,0,1,1.55,1.66,5.64,5.64,0,0,0,1.77,2,3.76,3.76,0,0,0,2.09.69,9.09,9.09,0,0,0,1.82-.16,6.36,6.36,0,0,0,1.44-.48,5.18,5.18,0,0,1,1.57-3.29,21.89,21.89,0,0,1-3.28-.58,13,13,0,0,1-3-1.25,8.61,8.61,0,0,1-2.57-2.14,10.29,10.29,0,0,1-1.68-3.36,16,16,0,0,1-.66-4.8,9.33,9.33,0,0,1,2.53-6.59,8.59,8.59,0,0,1,.22-6.52,4.48,4.48,0,0,1,2.75.43,19.22,19.22,0,0,1,2.67,1.23q0.85,0.51,1.36.86a23.09,23.09,0,0,1,12.28,0l1.21-.77a17.21,17.21,0,0,1,2.94-1.41,4.19,4.19,0,0,1,2.59-.35,8.51,8.51,0,0,1,.26,6.52,9.33,9.33,0,0,1,2.53,6.59,16.14,16.14,0,0,1-.66,4.81,9.89,9.89,0,0,1-1.69,3.36,8.94,8.94,0,0,1-2.59,2.13,13.07,13.07,0,0,1-3,1.25,21.87,21.87,0,0,1-3.28.58,5.69,5.69,0,0,1,1.66,4.54v6.75H309.23Z" transform="translate(-297.25 -3054.09)"/></svg>