<svg id="Desktop" xmlns="http://www.w3.org/2000/svg" viewBox="0 0 267.27 328.62"><defs><style>.cls-1{fill:#f6f7f7;}</style></defs><title>gnome</title><path class="cls-1" d="M1059.73,412.45c5.26,0.27,10.69.34,16.08,0.86,10.2,1,20.16,3.06,29.44,7.59,6,2.93,11.39,6.69,15.28,12.28a27.66,27.66,0,0,1,4.8,13.44c1,10.38-2.37,19.46-8.28,27.78a89.77,89.77,0,0,1-16.25,16.83c-8.84,7.34-18.44,13.57-28.14,19.68-10.5,6.62-21,13.22-31.43,19.95a85.5,85.5,0,0,0-17,14.19,27.44,27.44,0,0,0-6.63,11.16,16.54,16.54,0,0,0,2.21,13.93c5.46,8.25,12.73,14.5,22.19,17.68,6.84,2.3,13.5,1.59,19.35-3.07,3.73-3,5.66-7.07,6.77-11.6a26.23,26.23,0,0,0,.44-10.06c-0.59-4.13,1.17-7.33,4.18-9.95a37,37,0,0,1,12.36-6.74,68.45,68.45,0,0,1,26-3.81,31.52,31.52,0,0,1,14.13,3.61,12,12,0,0,1,6.5,8.74,19.92,19.92,0,0,1-.6,7.67c-3.22,14.43-10.29,26.81-20.12,37.72a91.86,91.86,0,0,1-38.48,25.73A65.16,65.16,0,0,1,1053,629.7c-13.74.43-26.83-2.54-39.51-7.58-13.08-5.19-24.77-12.71-35.61-21.61a147.55,147.55,0,0,1-42.78-57.23,97.75,97.75,0,0,1-7-25.83c-2.67-20.76,2.57-39.36,15.47-55.83,8.49-10.84,19-19.25,30.85-26.15a166.15,166.15,0,0,1,47-18.2,175.74,175.74,0,0,1,22.5-3.77C1049.1,413,1054.33,412.8,1059.73,412.45Z" transform="translate(-905.08 -301.13)"/><path class="cls-1" d="M1144.21,301.13c5.51,0.21,10.92.74,16.07,2.77,6,2.37,10.1,6.49,11.52,12.92a28.85,28.85,0,0,1-.41,12.89,72.53,72.53,0,0,1-10.17,22.86c-9.13,14.1-20.26,26.33-34.13,35.94-5.69,3.94-11.68,7.28-18.44,9.05-4.79,1.26-9.56,1.52-14.27-.29s-7.87-5.31-10.18-9.66a35.85,35.85,0,0,1-3.8-14.3c-0.12-1.56-.35-3.12-0.34-4.67a57.31,57.31,0,0,1,.38-6.1,78.94,78.94,0,0,1,4.35-18.65,66.76,66.76,0,0,1,30.36-35.67,51.47,51.47,0,0,1,18.71-6.07C1137.29,301.68,1140.76,301.46,1144.21,301.13Z" transform="translate(-905.08 -301.13)"/><path class="cls-1" d="M1010.73,349.46c0.12-8.11.83-14.45,3.54-20.41,4.08-9,11-14.24,20.8-15.58a19,19,0,0,1,10.77,1.24c4.59,2.12,7.08,6,8.58,10.6a37.48,37.48,0,0,1,1.46,13.51,77.39,77.39,0,0,1-5.65,26.29,54.72,54.72,0,0,1-10,16.52,17.61,17.61,0,0,1-5.23,4c-3.73,1.83-7.15.83-10.31-1.43a25.45,25.45,0,0,1-7.33-9,54.65,54.65,0,0,1-5.7-17.34C1011.11,354.55,1010.91,351.17,1010.73,349.46Z" transform="translate(-905.08 -301.13)"/><path class="cls-1" d="M989.89,372.6a60,60,0,0,1-3.47,20.76,20.25,20.25,0,0,1-4.23,7.1,8.26,8.26,0,0,1-9.1,2.21,20.81,20.81,0,0,1-8.93-6.22,50.65,50.65,0,0,1-12.71-27.12,30.66,30.66,0,0,1,1-14.65,22.06,22.06,0,0,1,19.26-15,12.33,12.33,0,0,1,10.21,4.33c3.19,3.48,4.9,7.72,6.09,12.2A63.13,63.13,0,0,1,989.89,372.6Z" transform="translate(-905.08 -301.13)"/><path class="cls-1" d="M942.93,419.29A29.1,29.1,0,0,1,941.41,430a14.79,14.79,0,0,1-1.5,3.08c-2.06,3.13-5.23,4.15-9.26,3a27.82,27.82,0,0,1-12-7.37,48.42,48.42,0,0,1-10.44-14.86c-1.95-4.51-3.34-9.18-3.09-14.16a19.64,19.64,0,0,1,15-18.45c3.35-.85,6.43.19,9.19,2.18,3.41,2.45,5.65,5.84,7.53,9.51a54.69,54.69,0,0,1,5.31,17c0.47,3.11.68,6.26,1,9.39Z" transform="translate(-905.08 -301.13)"/></svg>