<?xml version="1.0" encoding="utf-8"?>
<!-- Generator: Adobe Illustrator 19.2.1, SVG Export Plug-In . SVG Version: 6.00 Build 0)  -->
<svg version="1.1" id="Desktop" xmlns="http://www.w3.org/2000/svg" xmlns:xlink="http://www.w3.org/1999/xlink" x="0px" y="0px"
	 viewBox="0 0 36.4 44.6" style="enable-background:new 0 0 36.4 44.6;" xml:space="preserve">
<style type="text/css">
	.st0{fill:#3E4351;}
</style>
<title>gnome-dark</title>
<path class="st0" d="M21,15.1c0.7,0,1.5,0,2.2,0.1c1.4,0.1,2.7,0.4,4,1c0.8,0.4,1.5,0.9,2.1,1.7c0.4,0.5,0.6,1.2,0.7,1.8
	c0.1,1.4-0.3,2.7-1.1,3.8c-0.6,0.9-1.4,1.6-2.2,2.3c-1.2,1-2.5,1.9-3.8,2.7c-1.4,0.9-2.9,1.8-4.3,2.7c-0.9,0.5-1.6,1.2-2.3,1.9
	c-0.4,0.4-0.7,0.9-0.9,1.5c-0.2,0.6-0.1,1.3,0.3,1.9c0.7,1.1,1.8,2,3,2.4c0.9,0.3,1.9,0.2,2.6-0.4c0.5-0.4,0.8-1,0.9-1.6
	c0.1-0.4,0.1-0.9,0.1-1.4c0-0.5,0.2-1,0.6-1.3c0.5-0.4,1.1-0.7,1.7-0.9c1.1-0.4,2.3-0.6,3.5-0.5c0.7,0,1.3,0.2,1.9,0.5
	c0.5,0.2,0.8,0.7,0.9,1.2c0,0.3,0,0.7-0.1,1c-0.4,1.9-1.4,3.7-2.7,5.1c-1.4,1.6-3.2,2.8-5.2,3.5c-0.9,0.3-1.8,0.5-2.7,0.5
	c-1.8,0-3.7-0.3-5.4-1c-1.8-0.7-3.4-1.7-4.8-2.9c-2.5-2.1-4.5-4.8-5.8-7.8c-0.5-1.1-0.8-2.3-1-3.5c-0.4-2.7,0.4-5.5,2.1-7.6
	c1.2-1.5,2.6-2.7,4.2-3.6c2-1.1,4.1-2,6.4-2.5c1-0.2,2-0.4,3-0.5C19.6,15.2,20.3,15.2,21,15.1z"/>
<path class="st0" d="M32.5,0c0.7,0,1.5,0.1,2.2,0.4c0.8,0.3,1.4,0.9,1.6,1.8c0.1,0.6,0.1,1.2-0.1,1.8C35.9,5,35.5,6.1,34.8,7
	c-1.2,1.9-2.8,3.6-4.6,4.9c-0.8,0.6-1.6,1-2.5,1.2c-0.6,0.2-1.3,0.2-1.9,0c-0.6-0.3-1.1-0.7-1.4-1.3c-0.3-0.6-0.5-1.3-0.5-1.9V9.2
	c0-0.3,0-0.6,0-0.8c0.1-0.9,0.3-1.7,0.6-2.5c0.8-2.1,2.2-3.8,4.2-4.9c0.8-0.4,1.7-0.7,2.5-0.8C31.6,0.1,32.1,0,32.5,0z"/>
<path class="st0" d="M14.4,6.6c0-1,0.1-1.9,0.5-2.8c0.5-1.2,1.6-2,2.8-2.1c0.5-0.1,1,0,1.5,0.2c0.6,0.3,1,0.8,1.2,1.4
	c0.2,0.6,0.2,1.2,0.2,1.8c0,1.2-0.3,2.4-0.8,3.6c-0.3,0.8-0.8,1.6-1.4,2.2c-0.2,0.2-0.4,0.4-0.7,0.5c-0.5,0.2-1,0.1-1.4-0.2
	c-0.4-0.3-0.8-0.7-1-1.2c-0.4-0.7-0.7-1.5-0.8-2.4C14.4,7.3,14.4,6.8,14.4,6.6z"/>
<path class="st0" d="M11.5,9.7c0,1-0.1,1.9-0.5,2.8c-0.1,0.4-0.3,0.7-0.6,1c-0.3,0.3-0.8,0.5-1.2,0.3C8.8,13.7,8.4,13.4,8,13
	c-0.9-1-1.5-2.3-1.7-3.7c-0.1-0.7-0.1-1.4,0.1-2c0.4-1.1,1.4-1.9,2.6-2c0.5,0,1,0.2,1.3,0.6c0.4,0.5,0.7,1,0.8,1.7
	C11.4,8.3,11.5,9,11.5,9.7z"/>
<path class="st0" d="M5.1,16.1c0,0.5-0.1,1-0.2,1.5c-0.1,0.1-0.1,0.3-0.2,0.4c-0.3,0.4-0.8,0.6-1.3,0.4c-0.6-0.2-1.2-0.5-1.6-1
	c-0.6-0.6-1.1-1.3-1.4-2C0.1,14.7,0,14.1,0,13.4c0-1.2,0.8-2.2,2-2.5c0.4-0.1,0.9,0,1.3,0.3c0.4,0.3,0.8,0.8,1,1.3
	C4.6,13.2,4.9,14,5,14.8C5,15.2,5.1,15.7,5.1,16.1L5.1,16.1L5.1,16.1z"/>
</svg>
