<svg id="Desktop" xmlns="http://www.w3.org/2000/svg" viewBox="0 0 50.88 76.51"><defs><style>.cls-1{fill:#3e4351;}</style></defs><title>light</title><path class="cls-1" d="M392.56,1133.45c-0.06,1.4-.16,2.79-0.15,4.19a3.75,3.75,0,0,1-.78,2.33,37,37,0,0,1-8.14,8.45,1.18,1.18,0,0,0-.36.42c3-.94,5.62-2.72,8.32-4.45-0.27,1.05-.63,2.09-0.8,3.16a27.66,27.66,0,0,1-2.75,7.36c-0.74,1.58-1.46,3.18-2.34,4.68a5.53,5.53,0,0,1-1.82,1.77,17.17,17.17,0,0,1-10.17,2.78c-0.16,0-.33,0-0.49,0a0.89,0.89,0,0,0-.2.09,3.21,3.21,0,0,0,2.4,1.91,16.94,16.94,0,0,0,3,.1c1,0,2.1-.12,3.23-0.2-0.11.2-.19,0.36-0.28,0.5a75.72,75.72,0,0,1-7.83,9.52,4,4,0,0,1-3.13,1c-1.35,0-2.69-.19-4-0.31-0.29,0-.58-0.07-0.86-0.11l-0.06.19,4.5,2.31a13.87,13.87,0,0,1-6.59,2.59,13.21,13.21,0,0,1-5.59-.63,1.16,1.16,0,0,0-1.54.56c-1.74,2.93-3.49,5.85-5.2,8.8-0.42.72-.61,1.56-1,2.3a5.46,5.46,0,0,1-1.11,1.57c-1.64,1.46-3.32,2.87-5,4.26a3.62,3.62,0,0,1-1.32.58,0.74,0.74,0,0,1-.67-0.21,1,1,0,0,1,0-.84q2.47-3.57,5-7.09c0.64-.89,1.38-1.71,2-2.61q11.81-16.85,23.61-33.72l6.57-9.35a2.26,2.26,0,0,0,.35-0.72c-9,11.15-17.32,22.78-25.42,34.56-2.3-.94-4.52-5.08-4.15-7.75l3.06,0.73,0.1-.2c-0.5-.4-1-0.83-1.5-1.19a3.11,3.11,0,0,1-1.24-3.79,35.35,35.35,0,0,1,4.95-10.46c0.09-.13.2-0.25,0.38-0.48,0.29,2.09.42,4.12,1.64,5.86a31.41,31.41,0,0,1,9.76-20c-0.25,2.6-1.32,5-.06,7.42l0.21,0c0.2-.81.42-1.62,0.59-2.45a41.68,41.68,0,0,1,3-8.51,1.4,1.4,0,0,1,.48-0.58c2.3-1.52,4.61-3,6.91-4.54a2.76,2.76,0,0,1,.29-0.14,7,7,0,0,1,.65,4.32c0.1-.16.21-0.3,0.3-0.47,0.44-.82.85-1.67,1.31-2.48a22.54,22.54,0,0,1,4.17-5.67c2.07-1.91,4-4,6-6.12a5,5,0,0,1,.24.62q0.62,2.55,1.22,5.1a2.72,2.72,0,0,1-.8,2.81,5.28,5.28,0,0,0-.66.94l0.15,0.14,1.47-1.13,0.23,0.36v2Z" transform="translate(-341.68 -1122.63)"/></svg>