<svg id="Desktop" xmlns="http://www.w3.org/2000/svg" viewBox="0 0 324.31 101"><defs><style>.cls-1{fill:#7fbc42;}</style></defs><title>map</title><path class="cls-1" d="M1130,3127.41a4.67,4.67,0,0,0,1.86-2.78c-3.53.39-6.08-1.54-9.11-3.21,0.55,1.61,1,3.26,1.66,4.83C1125.57,3129.07,1127.82,3129.55,1130,3127.41Z" transform="translate(-914 -3057.98)"/><polygon class="cls-1" points="24.16 69.75 24.16 69.75 24.13 69.79 24.16 69.75"/><polygon class="cls-1" points="24.16 69.75 24.16 69.75 24.13 69.79 24.16 69.75"/><path class="cls-1" d="M938.16,3127.73l0,0s0,0,0,.06Z" transform="translate(-914 -3057.98)"/><path class="cls-1" d="M938.16,3127.73l0,0s0,0,0,.06Z" transform="translate(-914 -3057.98)"/><path class="cls-1" d="M1010.44,3089.93a3.58,3.58,0,0,1-2.14-3.8c0.15-2.52-.86-2.9-2.95-1.8-1,.5-2,1.47-2.69-0.63-1-3-3.85-3.41-6.59-1.74-2.21,1.35-2.71,3-2.82,5.36-0.12,2.72-4.32,1.53-4.76,4.28a3.57,3.57,0,0,1-.14.53c-0.25.77-.7,1.38-1.59,1.15s-1.74-1-1.31-2c0.86-2.16-.72-2.28-2-2.56a8.22,8.22,0,0,1-3.59-1.27c-1.73-1.36-1.84-2.86-.34-4.42,3-3.09,7.54-3.19,10.9-5.83a14.76,14.76,0,0,1,6-2.25c0.75-.13,1.78-0.76,1.44-1.69-0.46-1.29-1.42-.3-2,0-1.65.77-3,1-4.2-.84-1.71-2.69-2.12-2.65-3.85.17-1.19,1.94-2.44,2.9-4.94,2a9.88,9.88,0,0,0-7-.11c-2.43,1-4.21.21-6.2-.61a4.94,4.94,0,0,0-1.47-.64c-5.45-.13-11-1.77-16.32.54a3.65,3.65,0,0,1-4.64-1.3,3.17,3.17,0,0,0-2.75-1.52,108.19,108.19,0,0,0-18.5,2.5c-0.6.14-1.5,0.37-1.5,1,0,2.49-1.46,1.95-3,1.66a1.54,1.54,0,0,0-2,1c-0.2,1.08.74,1.31,1.6,1.43l0.62-.22-0.12.64c-2.24,1.07-4.75,1.08-7.07,1.86v3.31c2.85,2.26,5.52,1.23,8.55.07a16.91,16.91,0,0,1,12-.27c2.09,0.77,3.63,2.1,3.3,4.73a10,10,0,0,0,0,4.1c1.27,4-1.09,6.6-3,9.45-0.71,1.07-1.54,2.06-2.26,3.12-2.88,4.26-2.56,7.83,1.12,11.62a4.58,4.58,0,0,1,1,2.78c0.5,2.87.81,5.81,3.08,8,0.3-2.28-.62-4.28-1.44-6.31A1,1,0,0,1,937,3120c0.67-.26,1,0.4,1.13.91a25.8,25.8,0,0,0,2.38,5.55c1.51,2.39,3.39,4.62,3.25,7.72a1.62,1.62,0,0,0,.83,1.36c1.88,1.32,3.66,3.16,5.9,3.46a39.07,39.07,0,0,1,10.26,3.08c1.92,0.82,3.51,1.61,4.14,3.6,0.83,2.64,2.93,3.25,5.45,3.64-3-2.08-3.13-4.88-2.48-8,0.34-1.64-.66-2.5-2.17-2.46-2.54.06-2.47-1.15-1.66-2.92a13.32,13.32,0,0,0,.63-1.82c0.21-.72.43-1.45-0.45-1.93a1.82,1.82,0,0,0-2.29.26,8,8,0,0,0-1.08,1.58,3.41,3.41,0,0,1-3.69,1.86,4.32,4.32,0,0,1-3.79-3.17c-0.46-1.8,1.84-8.08,3.23-9.32,3.5-3.12,8.14-1.1,12-2.76,1.4-.6,3,1,3.37,2.93,0.1,0.54.26,1.07,0.39,1.61,0.17,0.73.35,1.6,1.28,1.5a1.66,1.66,0,0,0,1.31-1.6,10.1,10.1,0,0,0-.27-2.44c-0.38-2.28.07-4,2.28-5.35,2-1.16,4.38-2.08,5.51-4,2.72-4.72,7.95-6.49,11.41-10.28a4.54,4.54,0,0,1,1.72-.84c0.62-.24,1.37-0.43,1.52.52,0.26,1.71,1.09,1.14,1.81.46a7.37,7.37,0,0,1,3.17-1.53c0.75-.22,1.91-0.26,1.85-1.64a2.48,2.48,0,0,0-.79-0.19c-2.07.25-2.07,0.26-2.33-1.73-0.11-.8-0.77-0.62-1.27-0.68-0.84-.12-1.78.33-2.84-0.59a17.15,17.15,0,0,1,8.48-1.53,6.91,6.91,0,0,0,5.62-2.41C1011.87,3091.69,1012,3090.64,1010.44,3089.93Z" transform="translate(-914 -3057.98)"/><path class="cls-1" d="M1010.44,3089.93a3.58,3.58,0,0,1-2.14-3.8c0.15-2.52-.86-2.9-2.95-1.8-1,.5-2,1.47-2.69-0.63-1-3-3.85-3.41-6.59-1.74-2.21,1.35-2.71,3-2.82,5.36-0.12,2.72-4.32,1.53-4.76,4.28a3.57,3.57,0,0,1-.14.53c-0.25.77-.7,1.38-1.59,1.15s-1.74-1-1.31-2c0.86-2.16-.72-2.28-2-2.56a8.22,8.22,0,0,1-3.59-1.27c-1.73-1.36-1.84-2.86-.34-4.42,3-3.09,7.54-3.19,10.9-5.83a14.76,14.76,0,0,1,6-2.25c0.75-.13,1.78-0.76,1.44-1.69-0.46-1.29-1.42-.3-2,0-1.65.77-3,1-4.2-.84-1.71-2.69-2.12-2.65-3.85.17-1.19,1.94-2.44,2.9-4.94,2a9.88,9.88,0,0,0-7-.11c-2.43,1-4.21.21-6.2-.61a4.94,4.94,0,0,0-1.47-.64c-5.45-.13-11-1.77-16.32.54a3.65,3.65,0,0,1-4.64-1.3,3.17,3.17,0,0,0-2.75-1.52,108.19,108.19,0,0,0-18.5,2.5c-0.6.14-1.5,0.37-1.5,1,0,2.49-1.46,1.95-3,1.66a1.54,1.54,0,0,0-2,1c-0.2,1.08.74,1.31,1.6,1.43l0.62-.22c0,0.21-.28.42-0.32,0.64C919,3080,917,3080,914,3080.79v3.31c3,2.26,5.72,1.23,8.75.07a17.19,17.19,0,0,1,12.1-.27c2.09,0.77,3.68,2.1,3.35,4.73a10,10,0,0,0,0,4.1c1.27,4-1.08,6.6-3,9.45-0.71,1.07-1.53,2.06-2.25,3.12-2.88,4.26-2.56,7.83,1.13,11.62a4.58,4.58,0,0,1,1,2.78c0.5,2.87.81,5.81,3.08,8,0.3-2.28-.62-4.28-1.44-6.31A1,1,0,0,1,937,3120c0.67-.26,1,0.4,1.13.91a25.8,25.8,0,0,0,2.38,5.55c1.51,2.39,3.39,4.62,3.25,7.72a1.62,1.62,0,0,0,.83,1.36c1.88,1.32,3.66,3.16,5.9,3.46a39.07,39.07,0,0,1,10.26,3.08c1.92,0.82,3.51,1.61,4.14,3.6,0.83,2.64,2.93,3.25,5.45,3.64-3-2.08-3.13-4.88-2.48-8,0.34-1.64-.66-2.5-2.17-2.46-2.54.06-2.47-1.15-1.66-2.92a13.32,13.32,0,0,0,.63-1.82c0.21-.72.43-1.45-0.45-1.93a1.82,1.82,0,0,0-2.29.26,8,8,0,0,0-1.08,1.58,3.41,3.41,0,0,1-3.69,1.86,4.32,4.32,0,0,1-3.79-3.17c-0.46-1.8,1.84-8.08,3.23-9.32,3.5-3.12,8.14-1.1,12-2.76,1.4-.6,3,1,3.37,2.93,0.1,0.54.26,1.07,0.39,1.61,0.17,0.73.35,1.6,1.28,1.5a1.66,1.66,0,0,0,1.31-1.6,10.1,10.1,0,0,0-.27-2.44c-0.38-2.28.07-4,2.28-5.35,2-1.16,4.38-2.08,5.51-4,2.72-4.72,7.95-6.49,11.41-10.28a4.54,4.54,0,0,1,1.72-.84c0.62-.24,1.37-0.43,1.52.52,0.26,1.71,1.09,1.14,1.81.46a7.37,7.37,0,0,1,3.17-1.53c0.75-.22,1.91-0.26,1.85-1.64a2.48,2.48,0,0,0-.79-0.19c-2.07.25-2.07,0.26-2.33-1.73-0.11-.8-0.77-0.62-1.27-0.68-0.84-.12-1.78.33-2.84-0.59a17.15,17.15,0,0,1,8.48-1.53,6.91,6.91,0,0,0,5.62-2.41C1011.87,3091.69,1012,3090.64,1010.44,3089.93Z" transform="translate(-914 -3057.98)"/><path class="cls-1" d="M1002.5,3153.24a8,8,0,0,1-3-1.36c-3.69-2.67-7-6.18-12.1-5.92a0.94,0.94,0,0,1-.52-0.16c-2-1.32-3.65-1.26-4.76,2-0.62-3.75-2.08-3.63-3.9-1.89-1.53,1.46-4.11,2.52-3.42,5.12a5.77,5.77,0,0,1-.51,4.13,23,23,0,0,1-2.09,3.48h34.39c0-.09,0-0.18,0-0.29A5,5,0,0,0,1002.5,3153.24Z" transform="translate(-914 -3057.98)"/><path class="cls-1" d="M1002.5,3153.24a8,8,0,0,1-3-1.36c-3.69-2.67-7-6.18-12.1-5.92a0.94,0.94,0,0,1-.52-0.16c-2-1.32-3.65-1.26-4.76,2-0.62-3.75-2.08-3.63-3.9-1.89-1.53,1.46-4.11,2.52-3.42,5.12a6.18,6.18,0,0,1-.51,4.28,18.92,18.92,0,0,1-2.09,3.63h34.39s0-.33,0-0.44A5.15,5.15,0,0,0,1002.5,3153.24Z" transform="translate(-914 -3057.98)"/><path class="cls-1" d="M1054.89,3059.22a6.57,6.57,0,0,0-2.19.09,79.48,79.48,0,0,1-13,.07c-1-.06-2.34.31-2.73-1.23h-3.31c-1.9,1.57-7.09,1.57-8.84,0h-12.7c-1.44,2.31-3.89,2.35-6.18,2.74a33.09,33.09,0,0,0-4,.68c-1.28.39-2,1.65-.63,2.37,1.91,1,4,2.45,6.38,1.34,3-1.35,5.91-2.78,9.26-2.92,1.42-.34,2.85-0.69,4.28-1,0.43-.09,1-0.27,1.15.35a0.9,0.9,0,0,1-1,1.08c-1.37.1-2.75,0-4.12,0-0.54,2.07,1.29,1.37,2,1.57a8,8,0,0,1,6.17,6.63c0.34,1.65-.16,2.58-1.82,2.61-2,0-2,1.1-1.59,2.56a12.13,12.13,0,0,0,1.85,4.56c2.14,2.75,3.45,2.74,5.51-.05,0.91-1.24,1.36-3,3-3.5,4.59-1.43,8.65-4.42,13.71-4.46a2.75,2.75,0,0,0,3-3.14,2.34,2.34,0,0,1,2.41-2.71c1.61-.17,3-0.81,3.33-2.74a4.14,4.14,0,0,1,1.15-1.51c0.61-.71,2.26-0.69,1.86-2S1056,3059.49,1054.89,3059.22Z" transform="translate(-914 -3057.98)"/><path class="cls-1" d="M1054.89,3059.22a6.57,6.57,0,0,0-2.19.09,79.48,79.48,0,0,1-13,0c-1-.06-2.34.69-2.73-1.31h-3.31c-1.9,2-7.09,2-8.84,0h-12.7c-1.44,2-3.89,2.43-6.18,2.82a33.16,33.16,0,0,0-4,.73c-1.28.39-2,1.67-.63,2.39,1.91,1,4,2.46,6.38,1.35,3-1.35,5.91-2.77,9.26-2.91,1.42-.34,2.85-0.69,4.28-1,0.43-.09,1-0.27,1.15.35a0.9,0.9,0,0,1-1,1.08c-1.37.1-2.75,0-4.12,0-0.54,2.07,1.29,1.37,2,1.57a8,8,0,0,1,6.17,6.63c0.34,1.65-.16,2.58-1.82,2.61-2,0-2,1.1-1.59,2.56a12.13,12.13,0,0,0,1.85,4.56c2.14,2.75,3.45,2.74,5.51-.05,0.91-1.24,1.36-3,3-3.5,4.59-1.43,8.65-4.42,13.71-4.46a2.75,2.75,0,0,0,3-3.14,2.34,2.34,0,0,1,2.41-2.71c1.61-.17,3-0.81,3.33-2.74a4.14,4.14,0,0,1,1.15-1.51c0.61-.71,2.26-0.69,1.86-2S1056,3059.49,1054.89,3059.22Z" transform="translate(-914 -3057.98)"/><path class="cls-1" d="M1105.51,3123.33h0l0,0Z" transform="translate(-914 -3057.98)"/><path class="cls-1" d="M1105.51,3123.33h0l0,0Z" transform="translate(-914 -3057.98)"/><path class="cls-1" d="M1126.14,3149c1.26-3,.83-3.43-2.3-3.12-1,.1-2,0-3,0.11-2.32.33-3.73-.37-4.5-2.79a11.19,11.19,0,0,0-2.63-3.83c-4.23-4.59-5.84-10.48-8.12-16h0l0,0,0,0a2.68,2.68,0,0,1,2.75,1.38c3,5.36,7,10.08,9.07,15.95,0.83,2.37,2.21,3.21,4.43,2.07,4.52-2.31,9.44-3.92,12.55-8.58,1.46-2.18,2.25-3.4-.39-4.88a3.18,3.18,0,0,1-.86-1.06,1.39,1.39,0,0,1-.25-1.54c0.38-.62,1-0.34,1.47-0.11a6.25,6.25,0,0,0,3.5.61c4.36-.67,7.68,1.05,10.36,4.34a1.73,1.73,0,0,0,.78.74c4.33-.36,3.62,3,4.37,5.54a97.45,97.45,0,0,0,3.62,9.23c0.34,0.82.54,2,1.65,1.94a3.09,3.09,0,0,0,2.69-2.08,8,8,0,0,0,.11-3.54c-0.17-3.14.8-5.75,3.66-7.47a13.94,13.94,0,0,0,2.56-2.07c3.6-3.57,5.77-3.33,8.45.9,1.14,1.8,3,3.12,3.66,5.24,4.2-.51,2.72,2.85,3.18,4.8,0.28,1.15-.16,2.5,1,3.51,1.18-1.51-.39-4.2,1.53-4.47,1.57-.22,2.38,2.25,3.73,3.32,0.36,0.28.62,0.68,1,1a1.47,1.47,0,0,0,1.52.29,5.41,5.41,0,0,0,2.89-8,16.7,16.7,0,0,0-3.13-3.83c-0.89-.79-1.63-1.56-0.69-2.78,0.65-.84,1-2.16,2.4-1.94s1.85,1.31,1.83,2.67a1.12,1.12,0,0,0,.93,1.43,10.42,10.42,0,0,1,7.22-6.73,2.39,2.39,0,0,0,.83-0.71c2.92-2.93,3-6.63.27-9.85-1.06-1.25-3.28-2.62-2.73-3.9,1.6-3.73-1-2.87-2.76-3-0.8-.08-1.61-0.27-1.09-1.33a5.78,5.78,0,0,1,2.37-3c1.31-.63,1.32.84,1.86,1.45a1.07,1.07,0,0,0,.67.43c3.64-.36,4.55,2.6,6,4.91,0.4,0.66.71,1.33,1.59,1.28a2.76,2.76,0,0,0,2.09-1.62,1.39,1.39,0,0,0-.22-2c-0.76-.66-1.57-1.27-2.37-1.88s-1.75-1.44-1.19-2.5,0.41-3.28,2.29-3.38c2.5-.14,3-1.95,3.4-3.68,1.22-5.27-2.39-10.28-7.69-9.55-2.76.38-3.94-1.92-2.44-4.33,1-1.59,2.37-2.83,4.53-2.49,1.81,0.28,3.64.48,5.45,0.8,0.68,0.12,1.56.28,1.68-.4,0.49-2.65,2.09-3.23,4.49-2.92,0.6,0.08,1.29-.91,2-0.14a2.17,2.17,0,0,1,.21,2.58c-0.59,1.1-1.21,2.33-.4,3.36a39.17,39.17,0,0,0,5.57,6.37c0.58,0.48,1.11.58,1.53-.27,0.92-1.89,0-6.13-1.65-7.35-0.75-.54-1.9-0.92-1.09-2,0.63-.86,1.59-2,2.9-0.94,0.62,0.52,1.05.4,1.36,0,1-1.38,2.67-1.71,4.08-2.8a9.1,9.1,0,0,1-1.29-.94c-0.65-.71-2.58-0.57-1.91-2.08,0.6-1.34,2-.77,3.21-0.51s2.34,1.18,3.7.37a3.49,3.49,0,0,0-3.52-2.25c-3.58.1-6.85-1.21-10.28-1.72-2.25-.33-4.67-1.52-6.73-0.6a7,7,0,0,1-4.15.4c-6.26-.77-12.42-2.45-18.81-2.11a7.07,7.07,0,0,1-3.47-.72c-1.63-.77-3.19-1.26-4.65.52-0.83,1-2.17.58-3.37,0.58-3.81,0-7.4-2.4-11-1.84-4.22.66-8.19-.61-12.27-0.32-1.06.08-1.74-.35-1-1.44,1.14-1.68-.12-1.94-1.22-2-2.27-.19-4.57-0.14-6.85-0.29-5.17-.33-9.45,3.11-14.51,3.35-1.42.07-1.19,1.38-.93,2.39,0.17,0.66.33,1.32-.41,1.68s-1.13-.28-1.54-0.78-0.43-1.25-1.46-1.19a9.24,9.24,0,0,1,.39,1.29c0.14,1,1.7,2.23.11,2.79s-1.23-1.32-1.51-2.21a5.2,5.2,0,0,0-1.39-2.64c-1-.83-2.25-1.32-3.27-0.51s0.07,1.77.53,2.6c0.3,0.54,1.1,1,.75,1.65a1.57,1.57,0,0,1-1.94.7,14.63,14.63,0,0,0-9.83-.57c-1.89.45-4,.49-6,1.16a19.61,19.61,0,0,0-5.88,3.52c-1.22,1-2.05.19-2.85-.61-0.48-.48-1.6-0.85-1.11-1.65s1.64-.45,2.52-0.24a2,2,0,0,0,.54.11,1.38,1.38,0,0,0,1.44-1,1.06,1.06,0,0,0-.94-1.17,28.63,28.63,0,0,0-3.12-1.08c-6.66-1.83-13-2.71-18.79,2.82-2,1.93-3.39,4.82-6.55,5.58-0.78.19-.7,1.4-0.62,2.24s0.71,0.69,1.37.82c1.89,0.37,3.69,1.07,4.7,2.94,0.9,1.67,2.23,1.51,3.47.57,1.58-1.2,2.65-2.64,2.17-4.92s0.84-3.82,3-4.63a1.23,1.23,0,0,1,1.3.06c0.48,0.4.12,0.82,0,1.24-1,3-.78,3.24,2.28,3.39,0.61,0,1.32-.19,1.76.9-2.63,0-3.92,2.32-4.85,3.85-1.77,2.92-4.74,2.88-6.65,2.56a12.08,12.08,0,0,0-10.9,3.08c-1.64,1.46-3.37,3.13-6,3.09-1.15,0-1.84,2.57-1,3.56s1.46,2.26.63,3.49-2.05.89-3.24,0.42c-1.63-.64-3.25-1-4.23,1-0.83,1.72-.52,6.1.46,6.86,2.43,1.88,8,.75,8.82-2.14,0.76-2.52,2.91-3.5,4.51-4.95,1.11-1,3.46-.23,4.84-1.67a1.28,1.28,0,0,1,.92.42c1,1.47,2.63,1.93,4,2.85s2.76,1.68,2.46,3.64h0l0.38,0.46c2.46-3.13,2.45-3.11-.87-5.34-1.25-.83-2.56-1.67-2.91-3.94,3,1.71,5.78,2.95,7.28,5.58,0.76,1.33,1.55,2.69,2.31,4,0.37,0.65.91,1.72,1.86,1.07,0.65-.44,1.52-1.24.94-2.31-0.9-1.66.38-1.52,1.33-1.79s1.87-.29,1.89,1.07c0,3.22,2.16,3.93,4.8,4,1.38,0,2.76,0,4.14,0a1.53,1.53,0,0,1,1.75,1c0.63,2-1.51,5.87-3.5,5.76-3.81-.2-7.76.37-11.37-1.45-1-.5-1.86-0.85-2.41.58-0.72,1.88-2.2,1.77-3.65,1.08a40.83,40.83,0,0,0-5.29-2.27,2.85,2.85,0,0,1-2.05-3.69c0.57-2-.32-2-2-1.76-4.15.65-8.25,1.85-12.48,1.83a8.58,8.58,0,0,0-8.11,4.85,22.29,22.29,0,0,1-4,5.38c-3,3.22-5.64,6.54-4.47,11.47,0.25,1-.31,2.36-0.73,3.46-0.61,1.57-.79,3.66.06,4.52,3,3,4.25,7.38,8.07,9.6,1.4,0.81,2.94,1.45,4.46.81,2.49-1.06,5.2-1,7.74-1.86,2.16-.73,4.36-0.73,6.06,1.29a2.65,2.65,0,0,0,1.16.68c2.89,1,3.72,1.88,3.23,4.54h41.13c0.57-.67,1.16-1.34,1.78-2A25.57,25.57,0,0,0,1126.14,3149Zm5.72-24.37a4.67,4.67,0,0,1-1.86,2.78c-2.18,2.14-4.42,1.66-5.59-1.16-0.65-1.57-1.11-3.22-1.66-4.83C1125.78,3123.09,1128.33,3125,1131.86,3124.63Z" transform="translate(-914 -3057.98)"/><path class="cls-1" d="M1126.14,3149c1.26-3,.83-3.43-2.3-3.12-1,.1-2,0-3,0.11-2.32.33-3.73-.37-4.5-2.79a11.19,11.19,0,0,0-2.63-3.83c-4.23-4.59-5.84-10.48-8.12-16h0l0,0,0,0a2.68,2.68,0,0,1,2.75,1.38c3,5.36,7,10.08,9.07,15.95,0.83,2.37,2.21,3.21,4.43,2.07,4.52-2.31,9.44-3.92,12.55-8.58,1.46-2.18,2.25-3.4-.39-4.88a3.18,3.18,0,0,1-.86-1.06,1.39,1.39,0,0,1-.25-1.54c0.38-.62,1-0.34,1.47-0.11a6.25,6.25,0,0,0,3.5.61c4.36-.67,7.68,1.05,10.36,4.34a1.73,1.73,0,0,0,.78.74c4.33-.36,3.62,3,4.37,5.54a97.45,97.45,0,0,0,3.62,9.23c0.34,0.82.54,2,1.65,1.94a3.09,3.09,0,0,0,2.69-2.08,8,8,0,0,0,.11-3.54c-0.17-3.14.8-5.75,3.66-7.47a13.94,13.94,0,0,0,2.56-2.07c3.6-3.57,5.77-3.33,8.45.9,1.14,1.8,3,3.12,3.66,5.24,4.2-.51,2.72,2.85,3.18,4.8,0.28,1.15-.16,2.5,1,3.51,1.18-1.51-.39-4.2,1.53-4.47,1.57-.22,2.38,2.25,3.73,3.32,0.36,0.28.62,0.68,1,1a1.47,1.47,0,0,0,1.52.29,5.41,5.41,0,0,0,2.89-8,16.7,16.7,0,0,0-3.13-3.83c-0.89-.79-1.63-1.56-0.69-2.78,0.65-.84,1-2.16,2.4-1.94s1.85,1.31,1.83,2.67a1.12,1.12,0,0,0,.93,1.43,10.42,10.42,0,0,1,7.22-6.73,2.39,2.39,0,0,0,.83-0.71c2.92-2.93,3-6.63.27-9.85-1.06-1.25-3.28-2.62-2.73-3.9,1.6-3.73-1-2.87-2.76-3-0.8-.08-1.61-0.27-1.09-1.33a5.78,5.78,0,0,1,2.37-3c1.31-.63,1.32.84,1.86,1.45a1.07,1.07,0,0,0,.67.43c3.64-.36,4.55,2.6,6,4.91,0.4,0.66.71,1.33,1.59,1.28a2.76,2.76,0,0,0,2.09-1.62,1.39,1.39,0,0,0-.22-2c-0.76-.66-1.57-1.27-2.37-1.88s-1.75-1.44-1.19-2.5,0.41-3.28,2.29-3.38c2.5-.14,3-1.95,3.4-3.68,1.22-5.27-2.39-10.28-7.69-9.55-2.76.38-3.94-1.92-2.44-4.33,1-1.59,2.37-2.83,4.53-2.49,1.81,0.28,3.64.48,5.45,0.8,0.68,0.12,1.56.28,1.68-.4,0.49-2.65,2.09-3.23,4.49-2.92,0.6,0.08,1.29-.91,2-0.14a2.17,2.17,0,0,1,.21,2.58c-0.59,1.1-1.21,2.33-.4,3.36a39.17,39.17,0,0,0,5.57,6.37c0.58,0.48,1.11.58,1.53-.27,0.92-1.89,0-6.13-1.65-7.35-0.75-.54-1.9-0.92-1.09-2,0.63-.86,1.59-2,2.9-0.94,0.62,0.52,1.05.4,1.36,0,1-1.38,2.67-1.71,4.08-2.8a9.1,9.1,0,0,1-1.29-.94c-0.65-.71-2.58-0.57-1.91-2.08,0.6-1.34,2-.77,3.21-0.51s2.34,1.18,3.7.37a3.49,3.49,0,0,0-3.52-2.25c-3.58.1-6.85-1.21-10.28-1.72-2.25-.33-4.67-1.52-6.73-0.6a7,7,0,0,1-4.15.4c-6.26-.77-12.42-2.45-18.81-2.11a7.07,7.07,0,0,1-3.47-.72c-1.63-.77-3.19-1.26-4.65.52-0.83,1-2.17.58-3.37,0.58-3.81,0-7.4-2.4-11-1.84-4.22.66-8.19-.61-12.27-0.32-1.06.08-1.74-.35-1-1.44,1.14-1.68-.12-1.94-1.22-2-2.27-.19-4.57-0.14-6.85-0.29-5.17-.33-9.45,3.11-14.51,3.35-1.42.07-1.19,1.38-.93,2.39,0.17,0.66.33,1.32-.41,1.68s-1.13-.28-1.54-0.78-0.43-1.25-1.46-1.19a9.24,9.24,0,0,1,.39,1.29c0.14,1,1.7,2.23.11,2.79s-1.23-1.32-1.51-2.21a5.2,5.2,0,0,0-1.39-2.64c-1-.83-2.25-1.32-3.27-0.51s0.07,1.77.53,2.6c0.3,0.54,1.1,1,.75,1.65a1.57,1.57,0,0,1-1.94.7,14.63,14.63,0,0,0-9.83-.57c-1.89.45-4,.49-6,1.16a19.61,19.61,0,0,0-5.88,3.52c-1.22,1-2.05.19-2.85-.61-0.48-.48-1.6-0.85-1.11-1.65s1.64-.45,2.52-0.24a2,2,0,0,0,.54.11,1.38,1.38,0,0,0,1.44-1,1.06,1.06,0,0,0-.94-1.17,28.63,28.63,0,0,0-3.12-1.08c-6.66-1.83-13-2.71-18.79,2.82-2,1.93-3.39,4.82-6.55,5.58-0.78.19-.7,1.4-0.62,2.24s0.71,0.69,1.37.82c1.89,0.37,3.69,1.07,4.7,2.94,0.9,1.67,2.23,1.51,3.47.57,1.58-1.2,2.65-2.64,2.17-4.92s0.84-3.82,3-4.63a1.23,1.23,0,0,1,1.3.06c0.48,0.4.12,0.82,0,1.24-1,3-.78,3.24,2.28,3.39,0.61,0,1.32-.19,1.76.9-2.63,0-3.92,2.32-4.85,3.85-1.77,2.92-4.74,2.88-6.65,2.56a12.08,12.08,0,0,0-10.9,3.08c-1.64,1.46-3.37,3.13-6,3.09-1.15,0-1.84,2.57-1,3.56s1.46,2.26.63,3.49-2.05.89-3.24,0.42c-1.63-.64-3.25-1-4.23,1-0.83,1.72-.52,6.1.46,6.86,2.43,1.88,8,.75,8.82-2.14,0.76-2.52,2.91-3.5,4.51-4.95,1.11-1,3.46-.23,4.84-1.67a1.28,1.28,0,0,1,.92.42c1,1.47,2.63,1.93,4,2.85s2.76,1.68,2.46,3.64h0l0.38,0.46c2.46-3.13,2.45-3.11-.87-5.34-1.25-.83-2.56-1.67-2.91-3.94,3,1.71,5.78,2.95,7.28,5.58,0.76,1.33,1.55,2.69,2.31,4,0.37,0.65.91,1.72,1.86,1.07,0.65-.44,1.52-1.24.94-2.31-0.9-1.66.38-1.52,1.33-1.79s1.87-.29,1.89,1.07c0,3.22,2.16,3.93,4.8,4,1.38,0,2.76,0,4.14,0a1.53,1.53,0,0,1,1.75,1c0.63,2-1.51,5.87-3.5,5.76-3.81-.2-7.76.37-11.37-1.45-1-.5-1.86-0.85-2.41.58-0.72,1.88-2.2,1.77-3.65,1.08a40.83,40.83,0,0,0-5.29-2.27,2.85,2.85,0,0,1-2.05-3.69c0.57-2-.32-2-2-1.76-4.15.65-8.25,1.85-12.48,1.83a8.58,8.58,0,0,0-8.11,4.85,22.29,22.29,0,0,1-4,5.38c-3,3.22-5.64,6.54-4.47,11.47,0.25,1-.31,2.36-0.73,3.46-0.61,1.57-.79,3.66.06,4.52,3,3,4.25,7.38,8.07,9.6,1.4,0.81,2.94,1.45,4.46.81,2.49-1.06,5.2-1,7.74-1.86,2.16-.73,4.36-0.73,6.06,1.29a2.94,2.94,0,0,0,1.16.83c2.89,1,3.72,1.69,3.23,4.69h41.13a9.63,9.63,0,0,1,1.78-2.13A26.25,26.25,0,0,0,1126.14,3149Zm5.72-24.37a4.67,4.67,0,0,1-1.86,2.78c-2.18,2.14-4.42,1.66-5.59-1.16-0.65-1.57-1.11-3.22-1.66-4.83C1125.78,3123.09,1128.33,3125,1131.86,3124.63Z" transform="translate(-914 -3057.98)"/><path class="cls-1" d="M999.24,3071a8.08,8.08,0,0,1,4.76,1.08,3,3,0,0,1,.42,4.66c-2.4,1.88-2.38,2.27.45,3.53,1.12,0.5,3.37,1.37,3.37.5,0-2.08,2-2.39,2.48-4.09,0.76-2.66,0-6-2.61-7.09-2.86-1.24-5.7-2-8.51-.92-1.45-.75-2.19-0.08-2.84.76a1.24,1.24,0,0,0,.08,1.54C997.62,3072.18,998.43,3071,999.24,3071Z" transform="translate(-914 -3057.98)"/><path class="cls-1" d="M999.24,3071a8.08,8.08,0,0,1,4.76,1.08,3,3,0,0,1,.42,4.66c-2.4,1.88-2.38,2.27.45,3.53,1.12,0.5,3.37,1.37,3.37.5,0-2.08,2-2.39,2.48-4.09,0.76-2.66,0-6-2.61-7.09-2.86-1.24-5.7-2-8.51-.92-1.45-.75-2.19-0.08-2.84.76a1.24,1.24,0,0,0,.08,1.54C997.62,3072.18,998.43,3071,999.24,3071Z" transform="translate(-914 -3057.98)"/><path class="cls-1" d="M1207,3153.69c0.21-1.15-1.36-2.35-2.15-1.52-1.68,1.76-4.67,1.93-5.47,4.68a2.31,2.31,0,0,1-1.07,1.5,3.9,3.9,0,0,0-1,.34h9.5C1207,3157,1206.74,3155.31,1207,3153.69Z" transform="translate(-914 -3057.98)"/><path class="cls-1" d="M1207,3153.84c0.21-1.15-1.36-2.43-2.15-1.6-1.68,1.76-4.67,1.9-5.47,4.64a2.62,2.62,0,0,1-1.07,1.63c-0.42.09-.74,0.47-1,0.47h9.5C1207,3157,1206.74,3155.46,1207,3153.84Z" transform="translate(-914 -3057.98)"/><path class="cls-1" d="M968.71,3070.23c0.76,0.19,1.77,0,2,1.11,0.35,2.1,2.09,1.74,3.46,1.9,1.07,0.13,2.14-.56,2.8-0.34a7.79,7.79,0,0,0,4.49-.42c1.39-.42,1.55-1.51,1.33-2.63-0.29-1.51-1.42-.78-2.2-0.58a7,7,0,0,1-6.45-1.1,5.13,5.13,0,0,0-5.72-.1,1.38,1.38,0,0,0-.92,1.26A1.33,1.33,0,0,0,968.71,3070.23Z" transform="translate(-914 -3057.98)"/><path class="cls-1" d="M968.71,3070.23c0.76,0.19,1.77,0,2,1.11,0.35,2.1,2.09,1.74,3.46,1.9,1.07,0.13,2.14-.56,2.8-0.34a7.79,7.79,0,0,0,4.49-.42c1.39-.42,1.55-1.51,1.33-2.63-0.29-1.51-1.42-.78-2.2-0.58a7,7,0,0,1-6.45-1.1,5.13,5.13,0,0,0-5.72-.1,1.38,1.38,0,0,0-.92,1.26A1.33,1.33,0,0,0,968.71,3070.23Z" transform="translate(-914 -3057.98)"/><path class="cls-1" d="M1182.16,3153.72a4.45,4.45,0,0,0-1.49-.09l3.27,5h3.89C1186,3156.95,1184,3155.42,1182.16,3153.72Z" transform="translate(-914 -3057.98)"/><path class="cls-1" d="M1182.16,3153.87a6.24,6.24,0,0,0-1.49,0c1.13,1.74,2.21,3.12,3.27,5.12h3.89C1186,3157,1184,3155.57,1182.16,3153.87Z" transform="translate(-914 -3057.98)"/><path class="cls-1" d="M1083.85,3110.49c-0.38.14-1.16,0.18-.9,0.66,0.5,0.93,1,.1,1.41-0.25h0Z" transform="translate(-914 -3057.98)"/><path class="cls-1" d="M1083.85,3110.49c-0.38.14-1.16,0.18-.9,0.66,0.5,0.93,1,.1,1.41-0.25h0Z" transform="translate(-914 -3057.98)"/><path class="cls-1" d="M1083.85,3110.49l0.51,0.41,0.45-.45-0.38-.46Z" transform="translate(-914 -3057.98)"/><path class="cls-1" d="M1083.85,3110.49l0.51,0.41,0.45-.45-0.38-.46Z" transform="translate(-914 -3057.98)"/><path class="cls-1" d="M1084.42,3110l0.38,0.46-0.38-.46h0Z" transform="translate(-914 -3057.98)"/><path class="cls-1" d="M1084.42,3110l0.38,0.46-0.38-.46h0Z" transform="translate(-914 -3057.98)"/><path class="cls-1" d="M1084.42,3110l0.38,0.46-0.38-.46h0Z" transform="translate(-914 -3057.98)"/><path class="cls-1" d="M1084.35,3110.9h0l-0.51-.41Z" transform="translate(-914 -3057.98)"/><path class="cls-1" d="M1084.35,3110.9h0l-0.51-.41Z" transform="translate(-914 -3057.98)"/><path class="cls-1" d="M1084.35,3110.9h0l-0.51-.41Z" transform="translate(-914 -3057.98)"/><path class="cls-1" d="M921,3078.51l0.5,0.42,0.12-.64Z" transform="translate(-914 -3057.98)"/><path class="cls-1" d="M921,3078.51l0.5,0.42,0.12-.64Z" transform="translate(-914 -3057.98)"/><path class="cls-1" d="M1105.51,3123.33l0,0Z" transform="translate(-914 -3057.98)"/><path class="cls-1" d="M1105.51,3123.33l0,0Z" transform="translate(-914 -3057.98)"/><path class="cls-1" d="M1105.51,3123.33l0,0Z" transform="translate(-914 -3057.98)"/></svg>