<svg id="Desktop" xmlns="http://www.w3.org/2000/svg" viewBox="0 0 75.55 74.06"><defs><style>.cls-1{fill:#3e4351;}</style></defs><title>powerful</title><path class="cls-1" d="M757.62,1161.68s-26-7.64-31.37,9c0,0-14.33-10.81-26.32,4.23,0,0-.06-5.87,8-10,0,0-5.12-11.87.58-22.36a12.67,12.67,0,0,1-1.05-2.72c-0.38-1.09.68-.59,0.68-0.59a3.06,3.06,0,0,0,.85,2.47s5.61,1,8-1.41,6.11-2.38,8.22-2.38,2.23-1.09,2.23-2.32a1.71,1.71,0,0,0-1.88-2c-0.53,0,.44-1.47,2.23-3.82,1.63-2.14-11.54-9-13.24-6.75l-12.08,8.74a89.29,89.29,0,0,1-9.4,16.21c-6.34,8.81-12,25.49-9.52,35s30.08,13.63,37.48,13.63,18.45-4.93,24.32-4.93,13.16-9,13.16-15S757.62,1161.68,757.62,1161.68Zm-58.82-8.5a15.27,15.27,0,0,0-2.59,5.25c-0.33,1.81-.38,8.53-0.38,8.53s-1.23-5.72-.88-7.63,1.81-7.58,3.16-8.51C698.12,1150.82,699.65,1152,698.81,1153.18Zm15.82,35.38c-8,0-10.93-5.58-10.93-5.58s6.07,2.63,10.64,2.63,11.21-2.31,11.21-2.31S722.64,1188.56,714.62,1188.56Z" transform="translate(-683.02 -1122.63)"/></svg>