<?xml version="1.0" encoding="utf-8"?>
<!-- Generator: Adobe Illustrator 19.2.1, SVG Export Plug-In . SVG Version: 6.00 Build 0)  -->
<svg version="1.1" id="Layer_1" xmlns="http://www.w3.org/2000/svg" xmlns:xlink="http://www.w3.org/1999/xlink" x="0px" y="0px"
	 viewBox="0 0 10.9 10.9" style="enable-background:new 0 0 10.9 10.9;" xml:space="preserve">
<style type="text/css">
	.st0{fill:#BDC2CC;}
</style>
<title>Untitled-1</title>
<path class="st0" d="M5.9,6.6C5.8,6.7,5.6,6.7,5.5,6.8C5.2,6.8,4.9,6.9,4.6,6.8c-0.5,0-0.9-0.2-1.2-0.5C3,6,2.8,5.5,2.7,5.1
	C2.7,4.5,2.8,3.9,3.2,3.4C3.6,3,4,2.7,4.5,2.6c0.7-0.1,1.2,0.1,1.7,0.6c0.4,0.3,0.6,0.7,0.7,1.2c0.1,0.4,0,0.9-0.2,1.2
	c0,0.1-0.1,0.1-0.1,0.1l0.7,0.7L8,7.3c0.1,0.1,0.2,0.4,0.1,0.6C8,8.1,7.9,8.2,7.7,8.2C7.5,8.2,7.4,8.1,7.3,8L6.1,6.8L5.9,6.6z
	 M6.1,4.8c0-0.7-0.6-1.2-1.2-1.2c-0.7,0-1.2,0.6-1.2,1.2c0,0.7,0.6,1.2,1.2,1.2l0,0C5.5,6.1,6.1,5.5,6.1,4.8L6.1,4.8z"/>
</svg>
