<svg id="Desktop" xmlns="http://www.w3.org/2000/svg" viewBox="0 0 37.86 30.76"><defs><style>.cls-1{fill:#fff;}</style></defs><title>twitter</title><path class="cls-1" d="M280.16,3060.8a15.51,15.51,0,0,1-4.46,1.22,7.78,7.78,0,0,0,3.42-4.3,15.53,15.53,0,0,1-4.93,1.89,7.77,7.77,0,0,0-13.24,7.08,22,22,0,0,1-16-8.12,7.78,7.78,0,0,0,2.4,10.37,7.73,7.73,0,0,1-3.52-1v0.1a7.77,7.77,0,0,0,6.23,7.62,7.82,7.82,0,0,1-2,.27,7.71,7.71,0,0,1-1.46-.14,7.78,7.78,0,0,0,7.25,5.4,15.58,15.58,0,0,1-9.65,3.32,16,16,0,0,1-1.85-.11,22,22,0,0,0,11.91,3.49c14.28,0,22.1-11.83,22.1-22.1,0-.34,0-0.67,0-1A15.82,15.82,0,0,0,280.16,3060.8Z" transform="translate(-242.3 -3057.16)"/></svg>