<svg id="Layer_1" data-name="Layer 1" xmlns="http://www.w3.org/2000/svg" viewBox="0 0 306.59 36.43"><defs><style>.cls-1,.cls-3{fill:#23262e;}.cls-2{fill:#7fbc42;}.cls-3{font-size:30px;font-family:Ubuntu;}</style></defs><title>ubuntugnomeis</title><path class="cls-1" d="M198.37,29.49a22.6,22.6,0,0,1-2.84-.62,8.08,8.08,0,0,1-5-5,15.73,15.73,0,0,1-.13-10.87c1.55-4.48,5.25-6.41,9.8-5.94a8.35,8.35,0,0,1,7.58,6.41,15.78,15.78,0,0,1-.22,10.2,8.3,8.3,0,0,1-7.49,5.79,2.84,2.84,0,0,0-.37.08h-1.33Zm-3.95-11.32c0.07,0.82.11,1.65,0.22,2.47a8.25,8.25,0,0,0,.43,1.65,4.35,4.35,0,0,0,2.55,2.87,3.84,3.84,0,0,0,5-2.25,12.12,12.12,0,0,0,0-9.5,3.82,3.82,0,0,0-1.87-2,4,4,0,0,0-5.41,2A11.32,11.32,0,0,0,194.42,18.17Z"/><path class="cls-1" d="M158.92,29.49a23.63,23.63,0,0,1-2.53-.49,8.77,8.77,0,0,1-5.94-5.91,15,15,0,0,1-.07-9.56A9.11,9.11,0,0,1,159,7a14.12,14.12,0,0,1,7.28,1.42l0.32,0.18-1.21,3.57a32.14,32.14,0,0,0-3.7-1,8.2,8.2,0,0,0-2.9.1,4.74,4.74,0,0,0-3.6,3.33,11,11,0,0,0,0,7.32,5.14,5.14,0,0,0,5.94,3.48,14.13,14.13,0,0,0,2.16-.6,0.6,0.6,0,0,0,.41-0.68c0-1.08,0-2.17,0-3.31h-3.76V17h7.32v0.57c0,3.09,0,6.19,0,9.28a1,1,0,0,1-.48.9,10.35,10.35,0,0,1-5,1.59c-0.29,0-.58.07-0.87,0.11h-2Z"/><path class="cls-1" d="M67.75,29.49c-1.25-.22-2.5-0.4-3.74-0.67s-0.9,0-.9-1.1q0-11.32,0-22.63V6.78l2.76-.54h0.22c0,2,0,1.59,0,3.58,0,1,0,2,0,3.07l0.59-.26a8.34,8.34,0,0,1,5.81-.56,6.65,6.65,0,0,1,4.69,4.24A11.3,11.3,0,0,1,77.49,24a7.49,7.49,0,0,1-6.39,5.36c-0.16,0-.32.07-0.47,0.11H67.75Zm-1.62-8.42c0,1.64,0,3.27,0,4.91a0.49,0.49,0,0,0,.51.6,30.22,30.22,0,0,0,3.29.21,4.81,4.81,0,0,0,4.57-3.59,9.84,9.84,0,0,0,.14-4.75A4.64,4.64,0,0,0,72.34,15a6,6,0,0,0-6,.63,0.81,0.81,0,0,0-.2.58C66.12,17.83,66.13,19.45,66.13,21.07Z"/><path class="cls-1" d="M87.42,29.49c-0.49-.09-1-0.14-1.46-0.26a5.72,5.72,0,0,1-4.5-5,14,14,0,0,1-.22-2.36c0-3.07,0-6.15,0-9.22,0-.14,0-0.28,0-0.45h2.95c0,0.22,0,.43,0,0.64,0,2.69,0,5.38,0,8.06a16.47,16.47,0,0,0,.48,3.53,2.91,2.91,0,0,0,2.81,2.26c1.4,0.09,2.82,0,4.28-.07V12.21h3c0,0.19,0,.39,0,0.58,0,5.08,0,10.16,0,15.24a0.58,0.58,0,0,1-.59.71c-1.53.2-3.05,0.44-4.58,0.66l-0.43.09H87.42Z"/><path class="cls-1" d="M45.1,12.14h3c0,0.28,0,.49,0,0.7,0,3.18,0,6.37.09,9.55a7.41,7.41,0,0,0,.36,1.95,3.11,3.11,0,0,0,3,2.38c1.35,0.06,2.71-.06,4.12-0.1V12.21h3c0,0.2,0,.4,0,0.6,0,5.08,0,10.16,0,15.25a0.55,0.55,0,0,1-.55.69c-1.55.2-3.09,0.44-4.63,0.67l-0.43.09H51.4a5.41,5.41,0,0,0-.54-0.1,5.75,5.75,0,0,1-5.44-4.76C45.3,24.08,45.2,23.52,45.1,23V12.14Z"/><path class="cls-1" d="M135.38,29.49c-0.52-.09-1.06-0.14-1.57-0.27a5.74,5.74,0,0,1-4.49-5.07,14.44,14.44,0,0,1-.22-2.36c0-3.06,0-6.11,0-9.17,0-.13,0-0.25,0-0.42h3c0,0.22,0,.43,0,0.65,0,3.15,0,6.3.08,9.44a8.17,8.17,0,0,0,.37,2.05,3.11,3.11,0,0,0,2.72,2.34,14,14,0,0,0,4.42-.21V12.22h3V28.65c-1.15.2-2.32,0.43-3.49,0.61-0.69.11-1.38,0.15-2.08,0.22h-1.77Z"/><path class="cls-1" d="M122.12,29.49l-1-.15A4.59,4.59,0,0,1,117,25a20.89,20.89,0,0,1-.18-2.64c0-4.75,0-9.5,0-14.25a0.56,0.56,0,0,1,.58-0.71c0.8-.09,1.59-0.27,2.45-0.42v5.22h6.4V14.7h-6.33c0,0.19,0,.33,0,0.47,0,2.6,0,5.19,0,7.79a8.75,8.75,0,0,0,.32,2.12,2.19,2.19,0,0,0,2.05,1.66,6.91,6.91,0,0,0,4-.71L127,28.49a11.79,11.79,0,0,1-3.52,1h-1.33Z"/><path class="cls-1" d="M233.37,29h-4.47l-1.37-13.45c-0.11.28-.16,0.42-0.21,0.56-1.28,4.12-2.58,8.25-3.83,12.38a0.69,0.69,0,0,1-.84.6,13.31,13.31,0,0,0-1.77,0,0.63,0.63,0,0,1-.76-0.55c-1.26-4.25-2.54-8.49-3.82-12.73a1.16,1.16,0,0,0-.27-0.52L214.67,29h-4.49l2.3-21.68c1.67,0,3.27,0,4.87,0a0.68,0.68,0,0,1,.37.44q1.94,6.21,3.85,12.43l0.19,0.6c0.11-.3.18-0.49,0.25-0.69,1.26-4.07,2.53-8.14,3.78-12.22a0.69,0.69,0,0,1,.8-0.59c1.47,0,2.94,0,4.49,0Z"/><path class="cls-1" d="M170.52,7.33c0.94,0,1.82,0,2.7,0a1,1,0,0,1,.57.43q4.35,6,8.68,12l0.42,0.56v-13h4V29c-0.94,0-1.86,0-2.77,0a0.87,0.87,0,0,1-.47-0.4l-8.71-12L174.52,16V29h-4V7.33Z"/><path class="cls-1" d="M249.35,11.57h-8v4.49h6.1v3.77h-6.1v5h8.23V29h-13V7.38h12.71v4.2Z"/><path class="cls-1" d="M112.9,29.07h-3c0-.24,0-0.45,0-0.67,0-2.93,0-5.86,0-8.78a12.53,12.53,0,0,0-.41-2.83,2.9,2.9,0,0,0-2.67-2.22,14.79,14.79,0,0,0-4.5.24V29h-3V12.62c1.26-.21,2.51-0.51,3.79-0.62a24.29,24.29,0,0,1,4.18-.07,5.56,5.56,0,0,1,5.47,5.35,31.83,31.83,0,0,1,.18,3.41c0,2.56,0,5.12,0,7.68v0.71Z"/><path class="cls-2" d="M30.08,18.53H36c-0.05.5-.08,1-0.15,1.47a15.44,15.44,0,0,1-3.93,8.22,0.39,0.39,0,0,1-.56.11,5.06,5.06,0,0,0-7.19,3.36,6.74,6.74,0,0,0-.11.76,0.39,0.39,0,0,1-.34.38,14.87,14.87,0,0,1-9.78-1.23l-0.26-.15-0.12-.1,3-5.07A9.38,9.38,0,0,0,25.35,26,9.23,9.23,0,0,0,30.08,18.53Z"/><path class="cls-2" d="M13.12,4.47A15.29,15.29,0,0,1,23.83,2.84,5,5,0,0,0,26.36,8a5.09,5.09,0,0,0,5.7-.36,15.23,15.23,0,0,1,3.87,9.3H30.1c-0.11-.49-0.21-1-0.35-1.47A9,9,0,0,0,22.69,8.7a9,9,0,0,0-6,.7c-0.16.08-.32,0.17-0.46,0Z"/><path class="cls-2" d="M12.11,30.56C11.42,30,10.7,29.43,10,28.81a13.91,13.91,0,0,1-3.4-5l-0.25-.58c-0.26-.59-0.27-0.6.25-1a5.15,5.15,0,0,0-.27-8.44c-0.42-.26-0.42-0.28-0.26-0.75a15.42,15.42,0,0,1,5.25-7.42c0.43-.33.48-0.32,0.76,0.13l2.61,4.14c0.27,0.43.27,0.44-.11,0.76a9.21,9.21,0,0,0-3.27,8,8.83,8.83,0,0,0,3,6.07,8.32,8.32,0,0,1,.63.6,0.37,0.37,0,0,1,.06.34c-0.93,1.59-1.87,3.17-2.81,4.76A1,1,0,0,1,12.11,30.56Z"/><path class="cls-2" d="M25.31,3.58a3.59,3.59,0,0,1,7.18,0A3.59,3.59,0,1,1,25.31,3.58Z"/><path class="cls-2" d="M7.15,18.12a3.57,3.57,0,1,1-7.15,0,3.54,3.54,0,0,1,3.59-3.58A3.54,3.54,0,0,1,7.15,18.12Z"/><path class="cls-2" d="M29.09,36.43a3.54,3.54,0,1,1,0-7.08,3.61,3.61,0,0,1,3.53,3.53A3.57,3.57,0,0,1,29.09,36.43Z"/><text class="cls-3" transform="translate(262.41 28.83)">is...</text></svg>