<?xml version="1.0" encoding="utf-8"?>
<!-- Generator: Adobe Illustrator 19.2.1, SVG Export Plug-In . SVG Version: 6.00 Build 0)  -->
<svg version="1.1" id="Desktop" xmlns="http://www.w3.org/2000/svg" xmlns:xlink="http://www.w3.org/1999/xlink" x="0px" y="0px"
	 viewBox="0 0 44 44.5" style="enable-background:new 0 0 44 44.5;" xml:space="preserve">
<style type="text/css">
	.st0{fill:#3E4351;}
</style>
<title>whyubuntu</title>
<path class="st0" d="M36.7,22.6h7.2c-0.1,0.6-0.1,1.2-0.2,1.8c-0.6,3.7-2.2,7.2-4.8,10c-0.1,0.2-0.4,0.3-0.7,0.1c0,0,0,0,0,0
	c-3.1-1.5-6.8-0.3-8.3,2.8c-0.2,0.4-0.4,0.9-0.5,1.3c-0.1,0.3-0.1,0.6-0.1,0.9c0,0.2-0.2,0.4-0.4,0.5c-4,0.9-8.2,0.3-11.9-1.5
	l-0.3-0.2c-0.1,0-0.1-0.1-0.1-0.1l3.6-6.2c3.4,1.7,7.5,1.6,10.8-0.4C34.3,29.9,36.5,26.4,36.7,22.6z"/>
<path class="st0" d="M16,5.4c4-2.2,8.6-3,13.1-2c-0.2,2.7,0.7,4.9,3.1,6.3c2.2,1.3,5,1.1,7-0.4c2.8,3.1,4.5,7.1,4.7,11.4h-7.1
	c-0.1-0.6-0.3-1.2-0.4-1.8c-1.6-6.1-7.9-9.7-14-8.1c-0.7,0.2-1.4,0.4-2,0.7c-0.2,0.1-0.4,0.2-0.6-0.1L16,5.4z"/>
<path class="st0" d="M14.8,37.3c-0.8-0.7-1.7-1.4-2.5-2.1c-1.8-1.7-3.2-3.8-4.1-6.1c-0.1-0.2-0.2-0.5-0.3-0.7
	c-0.3-0.7-0.3-0.7,0.3-1.2c2.8-2.1,3.4-6,1.3-8.8c-0.4-0.6-1-1.1-1.6-1.5c-0.5-0.3-0.5-0.4-0.3-0.9c1.2-3.6,3.4-6.8,6.4-9.1
	c0.5-0.4,0.6-0.4,0.9,0.2l3.2,5.1c0.3,0.5,0.3,0.5-0.1,0.9c-2.9,2.4-4.4,6-4,9.7c0.2,2.9,1.5,5.5,3.7,7.4c0.3,0.2,0.5,0.5,0.8,0.7
	c0.1,0.1,0.1,0.3,0.1,0.4c-1.1,1.9-2.3,3.9-3.4,5.8C14.9,37.2,14.8,37.3,14.8,37.3z"/>
<path class="st0" d="M30.9,4.4c0-2.4,1.9-4.4,4.4-4.4c2.4,0,4.4,1.9,4.4,4.4s-1.9,4.4-4.4,4.4C32.9,8.7,30.9,6.8,30.9,4.4z"/>
<path class="st0" d="M8.7,22.1c0,2.4-2,4.4-4.4,4.4c-2.4,0-4.4-2-4.4-4.4s2-4.4,4.4-4.4C6.8,17.8,8.7,19.7,8.7,22.1L8.7,22.1z"/>
<path class="st0" d="M35.5,44.5c-2.4,0-4.3-1.9-4.3-4.3s1.9-4.3,4.3-4.3c2.4,0.1,4.3,2,4.3,4.3C39.8,42.5,37.9,44.5,35.5,44.5z"/>
</svg>
