<svg id="Desktop" xmlns="http://www.w3.org/2000/svg" viewBox="0 0 274.24 40.03"><defs><style>.cls-1{fill:#fff;}.cls-2{fill:#7fbc42;}</style></defs><title>ubuntugnome</title><path class="cls-1" d="M418.1,53.88A24.83,24.83,0,0,1,415,53.2a8.88,8.88,0,0,1-5.49-5.55,17.28,17.28,0,0,1-.15-11.95c1.7-4.92,5.77-7,10.76-6.52,4.36,0.45,7.09,3,8.33,7a17.34,17.34,0,0,1-.24,11.2A9.11,9.11,0,0,1,420,53.79a3.12,3.12,0,0,0-.41.09H418.1Zm-4.34-12.43c0.08,0.91.12,1.82,0.25,2.71a9.07,9.07,0,0,0,.47,1.81,4.78,4.78,0,0,0,2.8,3.16,4.22,4.22,0,0,0,5.54-2.47,13.31,13.31,0,0,0,0-10.44A4.2,4.2,0,0,0,420.75,34a4.34,4.34,0,0,0-5.95,2.2A12.44,12.44,0,0,0,413.76,41.45Z" transform="translate(-200.16 -21.48)"/><path class="cls-1" d="M374.76,53.88a26,26,0,0,1-2.78-.54,9.63,9.63,0,0,1-6.53-6.49,16.5,16.5,0,0,1-.08-10.5,10,10,0,0,1,9.43-7.21,15.52,15.52,0,0,1,8,1.56l0.35,0.2-1.33,3.92a35.32,35.32,0,0,0-4.06-1.12,9,9,0,0,0-3.18.12,5.2,5.2,0,0,0-4,3.66,12.05,12.05,0,0,0,0,8,5.65,5.65,0,0,0,6.53,3.82,15.52,15.52,0,0,0,2.38-.66,0.66,0.66,0,0,0,.46-0.75c0-1.19,0-2.38,0-3.64h-4.13V40.2h8v0.63c0,3.4,0,6.8,0,10.2a1,1,0,0,1-.52,1,11.37,11.37,0,0,1-5.48,1.75c-0.32,0-.64.08-1,0.12h-2.19Z" transform="translate(-200.16 -21.48)"/><path class="cls-1" d="M274.59,53.88c-1.37-.24-2.75-0.44-4.1-0.73s-1,0-1-1.21q0-12.43,0-24.87v1.85l3-.6h0.24c0,2.18,0,1.75,0,3.94,0,1.09,0,2.18,0,3.37l0.65-.29a9.16,9.16,0,0,1,6.38-.62A7.3,7.3,0,0,1,285,39.38a12.41,12.41,0,0,1,.3,8.49,8.23,8.23,0,0,1-7,5.88c-0.18,0-.35.08-0.52,0.12h-3.16Zm-1.78-9.26c0,1.8,0,3.6,0,5.4a0.54,0.54,0,0,0,.56.66,33.2,33.2,0,0,0,3.62.23A5.29,5.29,0,0,0,282,47a10.81,10.81,0,0,0,.15-5.22,5.1,5.1,0,0,0-2.52-3.8,6.59,6.59,0,0,0-6.6.7,0.89,0.89,0,0,0-.22.64C272.8,41.07,272.81,42.85,272.81,44.62Z" transform="translate(-200.16 -21.48)"/><path class="cls-1" d="M296.2,53.88c-0.53-.09-1.07-0.16-1.6-0.29a6.28,6.28,0,0,1-4.94-5.49,15.43,15.43,0,0,1-.25-2.59c0-3.38,0-6.76,0-10.13,0-.16,0-0.31,0-0.5h3.24c0,0.24,0,.47,0,0.7,0,3,0,5.91,0,8.86a18.1,18.1,0,0,0,.53,3.88,3.19,3.19,0,0,0,3.09,2.49c1.54,0.1,3.1,0,4.71-.08V34.89h3.32c0,0.21,0,.43,0,0.64,0,5.58,0,11.17,0,16.75a0.63,0.63,0,0,1-.65.78c-1.68.22-3.35,0.48-5,.73l-0.47.09H296.2Z" transform="translate(-200.16 -21.48)"/><path class="cls-1" d="M249.7,34.82H253c0,0.3,0,.54,0,0.77,0,3.5,0,7,.1,10.5a8.14,8.14,0,0,0,.39,2.14,3.42,3.42,0,0,0,3.34,2.61c1.48,0.06,3-.07,4.52-0.11V34.89h3.32c0,0.22,0,.44,0,0.65,0,5.58,0,11.17,0,16.75a0.6,0.6,0,0,1-.6.75c-1.7.22-3.4,0.49-5.09,0.74l-0.47.09h-1.94a5.94,5.94,0,0,0-.59-0.11,6.32,6.32,0,0,1-6-5.23c-0.13-.6-0.24-1.22-0.35-1.82V34.82Z" transform="translate(-200.16 -21.48)"/><path class="cls-1" d="M348.9,53.88c-0.58-.1-1.16-0.16-1.73-0.29-2.93-.71-4.44-2.71-4.94-5.57a15.86,15.86,0,0,1-.24-2.59c0-3.36,0-6.72,0-10.07,0-.14,0-0.28,0-0.46h3.26c0,0.24,0,.48,0,0.71,0,3.46,0,6.92.08,10.37a9,9,0,0,0,.41,2.26,3.41,3.41,0,0,0,3,2.57,15.39,15.39,0,0,0,4.86-.23V34.91H357V53c-1.26.22-2.55,0.47-3.84,0.67-0.75.12-1.52,0.17-2.28,0.24H348.9Z" transform="translate(-200.16 -21.48)"/><path class="cls-1" d="M334.33,53.88l-1.07-.16c-2.63-.44-4.13-2-4.5-4.82a23,23,0,0,1-.2-2.9c0-5.22,0-10.44,0-15.66a0.62,0.62,0,0,1,.64-0.78c0.88-.1,1.75-0.29,2.69-0.46v5.74h7v2.79h-7c0,0.21,0,.37,0,0.52,0,2.85,0,5.71,0,8.56a9.62,9.62,0,0,0,.35,2.32,2.41,2.41,0,0,0,2.25,1.82,7.59,7.59,0,0,0,4.42-.78l0.72,2.7a13,13,0,0,1-3.87,1.1h-1.46Z" transform="translate(-200.16 -21.48)"/><path class="cls-1" d="M456.55,53.36h-4.92l-1.51-14.78c-0.12.31-.18,0.46-0.23,0.62-1.41,4.53-2.83,9.06-4.21,13.6a0.76,0.76,0,0,1-.92.66,14.63,14.63,0,0,0-1.94,0,0.69,0.69,0,0,1-.84-0.6c-1.38-4.67-2.79-9.33-4.19-14a1.28,1.28,0,0,0-.3-0.57l-1.49,15h-4.93l2.53-23.82c1.83,0,3.59,0,5.35,0a0.74,0.74,0,0,1,.4.48q2.13,6.82,4.23,13.66l0.21,0.66c0.12-.33.2-0.54,0.27-0.76,1.39-4.48,2.78-8.95,4.15-13.43a0.76,0.76,0,0,1,.88-0.65c1.62,0,3.23,0,4.93,0Z" transform="translate(-200.16 -21.48)"/><path class="cls-1" d="M387.5,29.53c1,0,2,0,3,0a1.08,1.08,0,0,1,.62.48q4.78,6.57,9.54,13.16l0.46,0.61V29.57h4.41V53.38c-1,0-2,0-3,0a1,1,0,0,1-.51-0.44l-9.57-13.21-0.47-.62V53.35H387.5V29.53Z" transform="translate(-200.16 -21.48)"/><path class="cls-1" d="M474.11,34.19h-8.75v4.93h6.71v4.14h-6.71v5.45h9v4.63H460.14V29.58h14v4.61Z" transform="translate(-200.16 -21.48)"/><path class="cls-1" d="M324.2,53.42h-3.34c0-.26,0-0.5,0-0.73,0-3.22,0-6.43,0-9.65a13.76,13.76,0,0,0-.45-3.1,3.19,3.19,0,0,0-2.93-2.44,16.25,16.25,0,0,0-4.94.27V53.39h-3.28V35.34c1.38-.23,2.76-0.56,4.16-0.68a26.69,26.69,0,0,1,4.6-.08c3.52,0.3,5.59,2.37,6,5.88a35,35,0,0,1,.2,3.75c0,2.81,0,5.62,0,8.44v0.78Z" transform="translate(-200.16 -21.48)"/><path class="cls-2" d="M233.21,41.84h6.49c-0.06.55-.09,1.09-0.17,1.62a17,17,0,0,1-4.32,9,0.43,0.43,0,0,1-.61.12,5.56,5.56,0,0,0-7.9,3.69,7.4,7.4,0,0,0-.12.83,0.42,0.42,0,0,1-.38.42,16.34,16.34,0,0,1-10.74-1.35L215.17,56,215,55.92l3.28-5.57A10.31,10.31,0,0,0,228,50,10.14,10.14,0,0,0,233.21,41.84Z" transform="translate(-200.16 -21.48)"/><path class="cls-2" d="M214.57,26.39a16.8,16.8,0,0,1,11.77-1.79,5.51,5.51,0,0,0,2.78,5.65,5.59,5.59,0,0,0,6.27-.4,16.73,16.73,0,0,1,4.25,10.22h-6.41c-0.12-.53-0.23-1.08-0.38-1.62a10.29,10.29,0,0,0-14.39-6.65c-0.18.08-.35,0.19-0.5-0.05Z" transform="translate(-200.16 -21.48)"/><path class="cls-2" d="M213.46,55.05c-0.76-.63-1.55-1.24-2.28-1.92a15.29,15.29,0,0,1-3.74-5.49c-0.09-.21-0.18-0.43-0.28-0.64-0.29-.64-0.3-0.66.27-1.06a5.66,5.66,0,0,0-.3-9.27c-0.46-.29-0.46-0.31-0.29-0.82a16.94,16.94,0,0,1,5.77-8.15c0.47-.36.52-0.35,0.84,0.15l2.87,4.55c0.3,0.47.3,0.48-.12,0.84A10.12,10.12,0,0,0,212.61,42a9.7,9.7,0,0,0,3.33,6.67,9.14,9.14,0,0,1,.69.65,0.41,0.41,0,0,1,.06.37c-1,1.75-2.05,3.49-3.09,5.23A1.08,1.08,0,0,1,213.46,55.05Z" transform="translate(-200.16 -21.48)"/><path class="cls-2" d="M228,25.41a3.94,3.94,0,0,1,7.89-.05A3.94,3.94,0,1,1,228,25.41Z" transform="translate(-200.16 -21.48)"/><path class="cls-2" d="M208,41.39a3.93,3.93,0,1,1-7.85,0A3.93,3.93,0,0,1,208,41.39Z" transform="translate(-200.16 -21.48)"/><path class="cls-2" d="M232.12,61.5a3.89,3.89,0,1,1,0-7.78A4,4,0,0,1,236,57.6,3.92,3.92,0,0,1,232.12,61.5Z" transform="translate(-200.16 -21.48)"/></svg>