<?xml version="1.0" encoding="utf-8"?>
<!-- Generator: Adobe Illustrator 19.2.0, SVG Export Plug-In . SVG Version: 6.00 Build 0)  -->
<svg version="1.1" id="Layer_1" xmlns="http://www.w3.org/2000/svg" xmlns:xlink="http://www.w3.org/1999/xlink" x="0px" y="0px"
	 viewBox="0 0 1084.9 321.4" enable-background="new 0 0 1084.9 321.4" xml:space="preserve">
<g>
	<path fill="#FFFFFF" d="M783.1,135.2c-13,0-24.5,5.4-34.3,16.3v45.6c9.9,10.9,21.3,16.3,34.3,16.3c16.5,0,27.5-7.4,33-22.2
		c1.7-4.9,2.6-10.6,2.6-17c0-12.5-3.3-22.2-10-29.3C802.4,138.4,793.9,135.2,783.1,135.2z"/>
	<path fill="#FFFFFF" d="M669.9,143.6c-6.5-5.9-14.6-8.9-24.1-8.9c-15.7,0-26.5,7-32.6,21.1c-2.2,5.1-3.3,11.2-3.3,18.4
		c0,7.2,1.1,13.3,3.3,18.4c2.2,5.1,5,9.2,8.4,12.3c3.4,3.1,7.2,5.4,11.5,6.8c4.3,1.5,8.5,2.2,12.6,2.2c4.1,0,8.3-0.7,12.6-2.2
		c4.3-1.4,8.2-3.7,11.6-6.7c7.8-7.1,11.7-17.4,11.7-30.9C681.6,161,677.7,150.9,669.9,143.6z"/>
	<path fill="#FFFFFF" d="M245.2,140.8c-5.8-4.9-12.8-7.4-20.9-7.4c-12.9,0-22.3,5.7-28.3,17.2c-2.2,4.1-3.4,8.9-3.7,14.6h64.1
		C255.9,154.9,252.1,146.7,245.2,140.8z"/>
	<path fill="#FFFFFF" d="M481.6,140.8c-5.8-4.9-12.8-7.4-20.9-7.4c-12.9,0-22.3,5.7-28.3,17.2c-2.2,4.1-3.4,8.9-3.7,14.6H493
		C492.4,154.9,488.6,146.7,481.6,140.8z"/>
	<path fill="#FFFFFF" d="M0,0v321.4h1084.9V0H0z M144.5,221c0,2.8-0.9,5.1-2.8,7c-1.9,1.9-4.2,2.8-7.1,2.8s-5.2-0.9-7.1-2.8
		c-1.9-1.9-2.8-4.2-2.8-7v-5.7c-10.7,11-23.1,16.5-37.2,16.5c-13.9,0-25.9-4.9-36.1-14.8C40.5,206.2,35,192,35,174.3
		c0-17.4,5.5-31.6,16.5-42.6c10-10,22-15,36.1-15c14.1,0,26.4,5.5,37.2,16.5V79.9c0-2.9,0.9-5.3,2.8-7.2c1.9-1.9,4.2-2.8,7.1-2.8
		s5.2,0.9,7.1,2.8c1.9,1.9,2.8,4.3,2.8,7.2V221z M273.3,178.4c-1.8,1.9-4.2,2.8-7.3,2.8h-73.7c1.2,9.9,4.9,17.7,11.1,23.5
		c6.2,5.8,14.9,8.7,26.1,8.7c11.2,0,20.5-1.9,28-5.7c2.6-1.3,4.9-2,6.7-2c1.9,0,3.7,0.8,5.4,2.4c1.7,1.6,2.6,3.4,2.6,5.4
		c0,3.8-1.6,6.5-4.7,8.2c-3.1,1.7-5.9,3.1-8.4,4.2c-2.5,1.2-5.1,2.2-8,3c-6.5,1.9-14.1,2.8-22.6,2.8c-17.8,0-31.7-5-41.5-15
		c-9.9-10-14.8-24.2-14.8-42.6c0-15.9,4.1-29.2,12.4-39.8c9.3-11.9,22.5-17.8,39.6-17.8c16.2,0,29.1,5.5,38.5,16.5
		c8.8,10.3,13.3,23,13.3,38.3C276,174.2,275.1,176.5,273.3,178.4z M393,132.3l-37.8,90.4c-1,2.2-2.6,4.1-4.7,5.7
		c-2.1,1.6-4.5,2.4-7.3,2.4H341c-2.8,0-5.2-0.8-7.3-2.4c-2.1-1.6-3.7-3.5-4.7-5.7l-37.8-90.4c-0.7-1.7-1.1-3.6-1.1-5.7
		c0-2,0.9-4,2.8-6c1.9-2,4-2.9,6.3-2.9c4.6,0,7.8,1.9,9.6,5.7l33.3,84.3l33.3-84.3c1.7-3.8,4.9-5.7,9.6-5.7c2.3,0,4.4,1,6.3,2.9
		c1.9,2,2.8,3.8,2.8,5.5C394,128.6,393.7,130.6,393,132.3z M509.8,178.4c-1.8,1.9-4.2,2.8-7.3,2.8h-73.7c1.2,9.9,4.9,17.7,11.1,23.5
		c6.2,5.8,14.9,8.7,26.1,8.7c11.2,0,20.5-1.9,28-5.7c2.6-1.3,4.9-2,6.7-2c1.9,0,3.7,0.8,5.4,2.4c1.7,1.6,2.6,3.4,2.6,5.4
		c0,3.8-1.6,6.5-4.7,8.2c-3.1,1.7-5.9,3.1-8.4,4.2c-2.5,1.2-5.1,2.2-8,3c-6.5,1.9-14.1,2.8-22.6,2.8c-17.8,0-31.7-5-41.5-15
		c-9.9-10-14.8-24.2-14.8-42.6c0-15.9,4.1-29.2,12.4-39.8c9.3-11.9,22.5-17.8,39.6-17.8c16.2,0,29.1,5.5,38.5,16.5
		c8.8,10.3,13.3,23,13.3,38.3C512.5,174.2,511.6,176.5,509.8,178.4z M560.8,221c0,2.8-0.9,5.1-2.8,7c-1.9,1.9-4.2,2.8-7.1,2.8
		c-2.8,0-5.2-0.9-7.1-2.8c-1.9-1.9-2.8-4.2-2.8-7V79.9c0-2.9,0.9-5.3,2.8-7.2c1.9-1.9,4.2-2.8,7.1-2.8c2.8,0,5.2,0.9,7.1,2.8
		c1.9,1.9,2.8,4.3,2.8,7.2V221z M686.2,216c-10.1,10.6-23.6,15.9-40.4,15.9c-17,0-30.4-5.3-40.4-15.9
		c-10.1-10.6-15.2-24.5-15.2-41.7c0-17.2,5.1-31.2,15.2-41.7c10-10.6,23.5-15.9,40.4-15.9c16.8,0,30.3,5.3,40.4,15.9
		c10.1,10.7,15.2,24.6,15.2,41.7C701.4,191.4,696.3,205.3,686.2,216z M822,217.1c-10.1,9.9-22.2,14.8-36.2,14.8
		c-14,0-26.3-5.5-37.1-16.5v55.4c0,2.9-0.9,5.3-2.8,7.2c-1.9,1.9-4.2,2.8-7.1,2.8c-2.8,0-5.2-0.9-7.1-2.8c-1.9-1.9-2.8-4.3-2.8-7.2
		V127.5c0-2.8,0.9-5.1,2.8-7c1.9-1.9,4.2-2.8,7.1-2.8c2.8,0,5.2,0.9,7.1,2.8c1.9,1.9,2.8,4.2,2.8,7v5.7c10.7-11,23.1-16.5,37.2-16.5
		c14.1,0,26.1,5,36.1,15c11,11,16.5,25.2,16.5,42.6C838.6,192,833,206.2,822,217.1z M960.6,178.4c-1.8,1.9-4.2,2.8-7.3,2.8h-73.7
		c1.2,9.9,4.9,17.7,11.1,23.5c6.2,5.8,14.9,8.7,26.1,8.7c11.2,0,20.5-1.9,28-5.7c2.6-1.3,4.9-2,6.7-2c1.9,0,3.7,0.8,5.4,2.4
		c1.7,1.6,2.6,3.4,2.6,5.4c0,3.8-1.6,6.5-4.7,8.2c-3.1,1.7-5.9,3.1-8.4,4.2c-2.5,1.2-5.1,2.2-8,3c-6.5,1.9-14.1,2.8-22.6,2.8
		c-17.8,0-31.7-5-41.5-15c-9.9-10-14.8-24.2-14.8-42.6c0-15.9,4.1-29.2,12.4-39.8c9.3-11.9,22.5-17.8,39.6-17.8
		c16.2,0,29.1,5.5,38.5,16.5c8.8,10.3,13.3,23,13.3,38.3C963.3,174.2,962.4,176.5,960.6,178.4z M1051.8,133.3
		c-1.9,1.7-4.3,2.5-7.2,2.5h-1.1c-7.2,0-13.7,1.8-19.5,5.3c-5.7,3.6-10.5,8.2-14.2,13.8V221c0,2.8-1,5.1-2.9,7
		c-2,1.9-4.3,2.8-7.1,2.8c-2.8,0-5.1-0.9-7-2.8c-1.9-1.9-2.8-4.2-2.8-7v-93.2c0-2.8,0.9-5.1,2.8-7.1c1.9-2,4.2-2.9,7-2.9
		c2.8,0,5.1,1,7.1,2.9c2,2,2.9,4.3,2.9,7.1v9.3c10.1-13.6,21.5-20.4,34.1-20.4h1.1c2.8,0,5,0.9,6.8,2.8c1.8,1.9,2.7,4.2,2.7,7.1
		S1053.7,131.6,1051.8,133.3z"/>
	<path fill="#FFFFFF" d="M932.5,140.8c-5.8-4.9-12.8-7.4-20.9-7.4c-12.9,0-22.3,5.7-28.3,17.2c-2.2,4.1-3.4,8.9-3.7,14.6h64.1
		C943.2,154.9,939.4,146.7,932.5,140.8z"/>
	<path fill="#FFFFFF" d="M90.4,135.2c-16.5,0-27.5,7.4-32.8,22.2c-1.9,4.9-2.8,10.6-2.8,17c0,12.5,3.4,22.2,10.2,29.3
		c6.2,6.5,14.7,9.8,25.4,9.8c13,0,24.5-5.4,34.3-16.3v-45.6C114.9,140.6,103.4,135.2,90.4,135.2z"/>
</g>
</svg>
