<?xml version="1.0" encoding="utf-8"?>
<!-- Generator: Adobe Illustrator 19.2.0, SVG Export Plug-In . SVG Version: 6.00 Build 0)  -->
<svg version="1.1" id="Layer_1" xmlns="http://www.w3.org/2000/svg" xmlns:xlink="http://www.w3.org/1999/xlink" x="0px" y="0px"
	 viewBox="0 0 69.4 69.4" style="enable-background:new 0 0 69.4 69.4;" xml:space="preserve">
<style type="text/css">
	.st0{fill:none;stroke:#00AEEF;stroke-miterlimit:10;}
	.st1{fill:none;stroke:#00AEEF;stroke-linecap:round;stroke-linejoin:round;stroke-miterlimit:10;}
	.st2{fill:#00AEEF;}
</style>
<circle class="st0" cx="34.7" cy="34.7" r="34.2"/>
<g>
	<path class="st1" d="M47,27.2L47,27.2H22.9c-4.8,0-8.7,3.9-8.7,8.7s3.9,8.7,8.7,8.7c2.1,0,4.1-0.8,5.6-2h12.6c1.5,1.3,3.5,2,5.6,2
		c4.8,0,8.7-3.9,8.7-8.7C55.4,31.2,51.7,27.4,47,27.2z"/>
	<circle class="st2" cx="46.6" cy="32.2" r="1.6"/>
	<circle class="st2" cx="42.6" cy="35.9" r="1.6"/>
	<circle class="st2" cx="50.6" cy="35.9" r="1.6"/>
	<circle class="st2" cx="46.6" cy="39.7" r="1.6"/>
	<polygon class="st1" points="26.5,34.6 24.2,34.6 24.2,32.3 21.4,32.3 21.4,34.6 19.1,34.6 19.1,37.4 21.4,37.4 21.4,39.7 
		24.2,39.7 24.2,37.4 26.5,37.4 	"/>
	<line class="st1" x1="30.9" y1="38.2" x2="33.5" y2="36.3"/>
	<line class="st1" x1="35.4" y1="38.2" x2="38" y2="36.3"/>
	<path class="st1" d="M35.2,27.2c0,0,0-8.2,0-10.2"/>
</g>
</svg>
