<?xml version="1.0" encoding="utf-8"?>
<!-- Generator: Adobe Illustrator 19.2.0, SVG Export Plug-In . SVG Version: 6.00 Build 0)  -->
<svg version="1.1" id="Layer_1" xmlns="http://www.w3.org/2000/svg" xmlns:xlink="http://www.w3.org/1999/xlink" x="0px" y="0px"
	 viewBox="0 0 121.6 122.9" enable-background="new 0 0 121.6 122.9" xml:space="preserve">
<line fill="none" stroke="#00ADEE" stroke-width="0.5" stroke-linecap="round" stroke-linejoin="round" stroke-miterlimit="10" x1="110" y1="41.4" x2="11.7" y2="82.1"/>
<line fill="none" stroke="#00ADEE" stroke-width="0.5" stroke-linecap="round" stroke-linejoin="round" stroke-miterlimit="10" x1="40.8" y1="12.8" x2="81.2" y2="110.9"/>
<line fill="none" stroke="#00ADEE" stroke-width="0.5" stroke-linecap="round" stroke-linejoin="round" stroke-miterlimit="10" x1="81.2" y1="12.6" x2="40.8" y2="110.9"/>
<g>
	<circle fill="#404041" cx="81.8" cy="13.1" r="10"/>
	<g>
		<g>
			
				<path fill="none" stroke="#00ADEE" stroke-width="0.5" stroke-linecap="round" stroke-linejoin="round" stroke-miterlimit="10" d="
				M79.7,22.9c-0.1,0-0.3,0-0.4-0.1"/>
			
				<path fill="none" stroke="#00ADEE" stroke-width="0.5" stroke-linecap="round" stroke-linejoin="round" stroke-miterlimit="10" d="
				M79.7,22.9c0.6,0.1,1.2,0.2,1.8,0.2c0,0,1.6,0.1,3.3-0.5"/>
			
				<path fill="#404041" stroke="#00ADEE" stroke-width="0.5" stroke-linecap="round" stroke-linejoin="round" stroke-miterlimit="10" d="
				M93,11.7c0-6.3-5.1-11.4-11.4-11.4S70.1,5.4,70.1,11.7c0,5.5,3.9,10.2,9.2,11.2c0-0.1,0-0.3,0-0.7c0-0.5,0-0.9,0-1.3l-0.3,0.1
				c-0.2,0-0.5,0.1-0.8,0.1c-0.3,0-0.7,0-1-0.1c-0.3-0.1-0.7-0.2-1-0.4c-0.3-0.2-0.5-0.5-0.6-0.9l-0.1-0.3c-0.1-0.2-0.3-0.5-0.5-0.7
				c-0.2-0.3-0.4-0.5-0.6-0.6l-0.1-0.1c-0.1,0-0.1-0.1-0.2-0.2c-0.1-0.1-0.1-0.1-0.1-0.2c0-0.1,0-0.1,0.1-0.2c0.1,0,0.2-0.1,0.4-0.1
				l0.3,0c0.2,0,0.4,0.2,0.7,0.3c0.3,0.2,0.5,0.4,0.7,0.8c0.2,0.4,0.5,0.7,0.8,0.9c0.3,0.2,0.6,0.3,1,0.3s0.6,0,0.8-0.1
				c0.2,0,0.5-0.1,0.7-0.2c0.1-0.7,0.3-1.2,0.7-1.5c-0.6-0.1-1.1-0.1-1.5-0.3c-0.4-0.1-0.9-0.3-1.4-0.6c-0.5-0.3-0.9-0.6-1.2-1
				c-0.3-0.4-0.6-0.9-0.8-1.5c-0.2-0.6-0.3-1.4-0.3-2.2c0-1.2,0.4-2.2,1.2-3c-0.4-0.9-0.3-1.9,0.1-3c0.3-0.1,0.7,0,1.3,0.2
				c0.6,0.2,1,0.4,1.2,0.6c0.3,0.2,0.5,0.3,0.6,0.4c0.9-0.3,1.8-0.4,2.8-0.4c1,0,1.9,0.1,2.8,0.4l0.6-0.3c0.4-0.2,0.8-0.4,1.3-0.6
				c0.5-0.2,0.9-0.2,1.2-0.2c0.4,1.1,0.5,2.1,0.1,3c0.8,0.8,1.2,1.8,1.2,3c0,0.8-0.1,1.6-0.3,2.2c-0.2,0.6-0.5,1.1-0.8,1.5
				c-0.3,0.4-0.7,0.7-1.2,1c-0.5,0.3-0.9,0.5-1.4,0.6c-0.4,0.1-0.9,0.2-1.5,0.3c0.5,0.4,0.8,1.1,0.8,2.1v2.7
				C89.6,21.2,93,16.8,93,11.7z"/>
		</g>
		
			<path fill="none" stroke="#00ADEE" stroke-width="0.5" stroke-linecap="round" stroke-linejoin="round" stroke-miterlimit="10" d="
			M84.8,22.6"/>
		
			<path fill="none" stroke="#00ADEE" stroke-width="0.5" stroke-linecap="round" stroke-linejoin="round" stroke-miterlimit="10" d="
			M79.7,22.9"/>
		
			<path fill="none" stroke="#00ADEE" stroke-width="0.5" stroke-linecap="round" stroke-linejoin="round" stroke-miterlimit="10" d="
			M84.8,22.6"/>
	</g>
</g>
<line fill="none" stroke="#00ADEE" stroke-width="0.5" stroke-linecap="round" stroke-linejoin="round" stroke-miterlimit="10" x1="110.2" y1="81.7" x2="11.5" y2="41.8"/>
<circle fill="#404041" stroke="#FFFFFF" stroke-linecap="round" stroke-linejoin="round" stroke-miterlimit="10" cx="60.8" cy="61.7" r="23.4"/>
<g>
	<path fill="none" stroke="#FFFFFF" stroke-linecap="round" stroke-linejoin="round" stroke-miterlimit="10" d="M64.9,62.7
		c-1.2,0.7-2.6,1.2-4.1,1.2s-2.9-0.4-4.1-1.2c-5.4,1.7-9.3,6.8-9.3,12.7h26.8C74.2,69.4,70.3,64.4,64.9,62.7z"/>
	
		<circle fill="none" stroke="#FFFFFF" stroke-linecap="round" stroke-linejoin="round" stroke-miterlimit="10" cx="60.8" cy="56" r="7.9"/>
</g>
<circle fill="#404041" stroke="#00ADEE" stroke-width="0.5" stroke-linecap="round" stroke-linejoin="round" stroke-miterlimit="10" cx="81.6" cy="110.9" r="11.4"/>
<g>
	
		<path fill="#404041" stroke="#00ADEE" stroke-width="0.5" stroke-linecap="round" stroke-linejoin="round" stroke-miterlimit="10" d="
		M88.3,108.1c-0.2-0.7-0.8-1.3-1.5-1.4c-1.7-0.2-3.5-0.2-5.3-0.2c-1.8,0-3.5,0-5.3,0.2c-0.7,0.1-1.3,0.6-1.5,1.4
		c-0.2,1.1-0.2,2.2-0.2,3.3c0,1.1,0,2.3,0.2,3.3c0.2,0.7,0.8,1.3,1.5,1.4c1.7,0.2,3.5,0.2,5.3,0.2c1.8,0,3.5,0,5.3-0.2
		c0.7-0.1,1.3-0.6,1.5-1.4c0.2-1.1,0.2-2.2,0.2-3.3C88.6,110.3,88.6,109.2,88.3,108.1z M79.7,113.6c0-1.6,0-3.1,0-4.6
		c1.5,0.8,3,1.5,4.5,2.3C82.7,112.1,81.2,112.8,79.7,113.6z"/>
</g>
<g>
	
		<circle fill="#404041" stroke="#00ADEE" stroke-width="0.5" stroke-linecap="round" stroke-linejoin="round" stroke-miterlimit="10" cx="110" cy="82.1" r="11.4"/>
	<g>
		
			<path fill="none" stroke="#00ADEE" stroke-width="0.5" stroke-linecap="round" stroke-linejoin="round" stroke-miterlimit="10" d="
			M103.9,87.8c1.1,0,2.2,0,3.3,0c0,0.1,0,0.1,0,0.2c0,0.6,0,1.2,0,1.9c0,0,0,0.1,0,0.2c0.1-0.1,0.1-0.1,0.1-0.1c0.7-0.7,1.3-1.3,2-2
			c0.1-0.1,0.2-0.1,0.3-0.1c1.3,0,2.5,0,3.8,0c0.1,0,0.1,0,0.2-0.1c0.8-0.8,1.6-1.6,2.4-2.4c0.1-0.1,0.1-0.1,0.1-0.2
			c0-2.6,0-5.3,0-7.9c0,0,0-0.1,0-0.1c-0.2,0-12.1,0-12.2,0C103.9,80.6,103.9,84.2,103.9,87.8z"/>
		
			<path fill="none" stroke="#00ADEE" stroke-width="0.5" stroke-linecap="round" stroke-linejoin="round" stroke-miterlimit="10" d="
			M107.9,84.5c0-1.5,0-2.9,0-4.4c0.5,0,1,0,1.5,0c0,1.5,0,2.9,0,4.4C108.9,84.5,108.4,84.5,107.9,84.5z"/>
		
			<path fill="none" stroke="#00ADEE" stroke-width="0.5" stroke-linecap="round" stroke-linejoin="round" stroke-miterlimit="10" d="
			M112,80c0.5,0,1,0,1.5,0c0,0.1,0,4.2,0,4.4c-0.1,0-1.3,0-1.5,0C112,84.4,112,80.3,112,80z"/>
	</g>
</g>
<g>
	
		<circle fill="#404041" stroke="#00ADEE" stroke-width="0.5" stroke-linecap="round" stroke-linejoin="round" stroke-miterlimit="10" cx="110" cy="41.2" r="11.4"/>
	<g>
		
			<path id="Dribbble" fill="none" stroke="#00ADEE" stroke-width="0.5" stroke-linecap="round" stroke-linejoin="round" stroke-miterlimit="10" d="
			M110,33c-4.6,0-8.3,3.7-8.3,8.3c0,4.6,3.7,8.3,8.3,8.3c4.6,0,8.3-3.7,8.3-8.3C118.2,36.7,114.5,33,110,33z M115,37.2
			c0.8,1,1.3,2.3,1.4,3.7c-0.9-0.2-1.8-0.3-2.6-0.3v0h0c-0.7,0-1.3,0.1-1.9,0.2c-0.1-0.3-0.3-0.7-0.4-1
			C112.8,39.2,114,38.4,115,37.2z M110,34.8c1.5,0,2.9,0.5,4,1.4c-0.8,1-2,1.7-3.2,2.3c-0.8-1.6-1.7-2.8-2.2-3.5
			C109,34.8,109.5,34.8,110,34.8z M107.1,35.5c0.4,0.5,1.3,1.7,2.3,3.5c-1.9,0.6-3.9,0.7-5.1,0.7c0,0-0.1,0-0.1,0h0
			c-0.2,0-0.4,0-0.5,0C104.2,37.8,105.4,36.3,107.1,35.5z M103.5,41.2C103.5,41.2,103.5,41.2,103.5,41.2c0.2-0.1,0.4-0.1,0.7-0.1h0
			c1.3,0,3.6-0.1,5.9-0.8c0.1,0.3,0.2,0.6,0.4,0.9c-1.5,0.5-2.7,1.3-3.6,2.1c-0.9,0.8-1.4,1.6-1.8,2.1
			C104.1,44.3,103.5,42.8,103.5,41.2z M110,47.7c-1.4,0-2.8-0.5-3.8-1.3c0.2-0.4,0.7-1.1,1.5-1.8c0.8-0.8,1.9-1.6,3.3-2
			c0.5,1.4,0.9,2.9,1.3,4.7C111.5,47.5,110.8,47.7,110,47.7z M113.6,46.5c-0.3-1.6-0.7-3-1.2-4.3c0.4-0.1,0.9-0.1,1.3-0.1h0h0h0
			c0.8,0,1.6,0.1,2.5,0.3C116,44.1,115,45.6,113.6,46.5z"/>
	</g>
</g>
<g>
	
		<circle fill="#404041" stroke="#00ADEE" stroke-width="0.5" stroke-linecap="round" stroke-linejoin="round" stroke-miterlimit="10" cx="11.7" cy="41.4" r="11.4"/>
	<g>
		<g>
			
				<path fill="none" stroke="#00ADEE" stroke-width="0.5" stroke-linecap="round" stroke-linejoin="round" stroke-miterlimit="10" d="
				M18,44.9c0,0.2,0,0.4-0.2,0.5L16,47.2c-0.1,0.1-0.2,0.2-0.3,0.2c-0.1,0.1-0.3,0.1-0.4,0.1c0,0,0,0-0.1,0c0,0-0.1,0-0.2,0
				c-0.2,0-0.4,0-0.8-0.1c-0.4-0.1-0.8-0.2-1.4-0.4c-0.5-0.2-1.2-0.6-1.9-1c-0.7-0.5-1.4-1.1-2.2-1.9c-0.6-0.6-1.1-1.2-1.6-1.8
				c-0.4-0.6-0.7-1.1-1-1.6c-0.3-0.5-0.4-0.9-0.6-1.3c-0.1-0.4-0.2-0.7-0.3-1c0-0.3-0.1-0.5-0.1-0.7c0-0.2,0-0.3,0-0.3
				c0-0.1,0.1-0.3,0.1-0.4c0.1-0.1,0.1-0.2,0.2-0.3l1.8-1.8c0.1-0.1,0.3-0.2,0.4-0.2c0.1,0,0.2,0,0.3,0.1c0.1,0.1,0.2,0.1,0.2,0.2
				L9.9,38c0.1,0.1,0.1,0.3,0.1,0.5s-0.1,0.3-0.2,0.4l-0.7,0.7c0,0,0,0,0,0.1c0,0,0,0.1,0,0.1c0,0.2,0.1,0.4,0.2,0.6
				c0.1,0.2,0.3,0.5,0.5,0.8c0.2,0.3,0.5,0.7,1,1.1c0.4,0.4,0.8,0.7,1.1,1c0.3,0.2,0.6,0.4,0.8,0.5s0.4,0.2,0.5,0.2l0.2,0
				c0,0,0,0,0.1,0c0,0,0.1,0,0.1,0l0.8-0.8c0.2-0.1,0.3-0.2,0.6-0.2c0.2,0,0.3,0,0.4,0.1h0l2.6,1.5C17.9,44.6,18,44.7,18,44.9z"/>
		</g>
	</g>
</g>
<g>
	
		<circle fill="#404041" stroke="#00ADEE" stroke-width="0.5" stroke-linecap="round" stroke-linejoin="round" stroke-miterlimit="10" cx="40.8" cy="11.8" r="11.4"/>
	<g>
		
			<rect x="33.8" y="7.7" fill="none" stroke="#00ADEE" stroke-width="0.5" stroke-linecap="round" stroke-linejoin="round" stroke-miterlimit="10" width="14" height="8.3"/>
		
			<line fill="none" stroke="#00ADEE" stroke-width="0.5" stroke-linecap="round" stroke-linejoin="round" stroke-miterlimit="10" x1="42.4" y1="11.7" x2="47.8" y2="16"/>
		
			<line fill="none" stroke="#00ADEE" stroke-width="0.5" stroke-linecap="round" stroke-linejoin="round" stroke-miterlimit="10" x1="39.3" y1="11.7" x2="33.8" y2="16"/>
		
			<polyline fill="none" stroke="#00ADEE" stroke-width="0.5" stroke-linecap="round" stroke-linejoin="round" stroke-miterlimit="10" points="
			47.8,7.7 40.8,12.8 33.8,7.7 		"/>
	</g>
</g>
<g>
	
		<circle fill="#404041" stroke="#00ADEE" stroke-width="0.5" stroke-linecap="round" stroke-linejoin="round" stroke-miterlimit="10" cx="40.5" cy="111.2" r="11.4"/>
	<g>
		<g id="XMLID_3_">
			<g>
			</g>
			<g>
				
					<path fill="none" stroke="#00ADEE" stroke-width="0.5" stroke-linecap="round" stroke-linejoin="round" stroke-miterlimit="10" d="
					M46.7,109.1l0,0.4c0,3.9-3,8.3-8.3,8.3c-1.7,0-3.2-0.5-4.5-1.3c0.2,0,0.5,0,0.7,0c1.4,0,2.6-0.5,3.6-1.3c-1.3,0-2.4-0.9-2.7-2
					c0.2,0,0.4,0.1,0.6,0.1c0.3,0,0.5,0,0.8-0.1c-1.3-0.3-2.4-1.5-2.4-2.9v0c0.4,0.2,0.8,0.4,1.3,0.4c-0.8-0.5-1.3-1.4-1.3-2.4
					c0-0.5,0.1-1,0.4-1.5c1.4,1.8,3.6,2.9,6,3.1c-0.1-0.2-0.1-0.4-0.1-0.7c0-1.6,1.3-2.9,2.9-2.9c0.8,0,1.6,0.4,2.1,0.9
					c0.7-0.1,1.3-0.4,1.9-0.7c-0.2,0.7-0.7,1.3-1.3,1.6c0.6-0.1,1.2-0.2,1.7-0.5C47.8,108.1,47.3,108.7,46.7,109.1z"/>
			</g>
		</g>
	</g>
</g>
<g>
	
		<circle fill="#404041" stroke="#00ADEE" stroke-width="0.5" stroke-linecap="round" stroke-linejoin="round" stroke-miterlimit="10" cx="11.7" cy="82.1" r="11.4"/>
	<g>
		<g id="XMLID_4_">
			<g>
				<path fill="#404041" d="M17.2,83V87h-2.4v-3.8c0-1-0.3-1.6-1.2-1.6c-0.7,0-1,0.4-1.2,0.9c-0.1,0.2-0.1,0.4-0.1,0.6v4H10
					c0,0,0-6.4,0-7.1h2.4v1c0,0,0,0,0,0h0v0c0.3-0.5,0.9-1.2,2.1-1.2C16,79.8,17.2,80.8,17.2,83z"/>
				<path fill="#404041" d="M12.3,80.9L12.3,80.9L12.3,80.9C12.3,81,12.3,81,12.3,80.9z"/>
				<rect x="6.3" y="79.9" fill="#404041" width="2.4" height="7.1"/>
				<path fill="#404041" d="M7.5,76.5c0.8,0,1.3,0.5,1.3,1.2c0,0.7-0.5,1.2-1.3,1.2h0c-0.8,0-1.3-0.5-1.3-1.2
					C6.1,77,6.7,76.5,7.5,76.5z"/>
			</g>
			<g>
				
					<rect x="6.3" y="79.9" fill="none" stroke="#00ADEE" stroke-width="0.5" stroke-linecap="round" stroke-linejoin="round" stroke-miterlimit="10" width="2.4" height="7.1"/>
				
					<path fill="none" stroke="#00ADEE" stroke-width="0.5" stroke-linecap="round" stroke-linejoin="round" stroke-miterlimit="10" d="
					M7.5,79L7.5,79c-0.8,0-1.3-0.5-1.3-1.2c0-0.7,0.5-1.2,1.3-1.2c0.8,0,1.3,0.5,1.3,1.2C8.8,78.4,8.3,79,7.5,79z"/>
				
					<path fill="none" stroke="#00ADEE" stroke-width="0.5" stroke-linecap="round" stroke-linejoin="round" stroke-miterlimit="10" d="
					M17.2,87h-2.4v-3.8c0-1-0.3-1.6-1.2-1.6c-0.7,0-1,0.4-1.2,0.9c-0.1,0.2-0.1,0.4-0.1,0.6v4H10c0,0,0-6.4,0-7.1h2.4v1
					c0.3-0.5,0.9-1.2,2.1-1.2c1.6,0,2.7,1,2.7,3.2V87z"/>
				
					<path fill="none" stroke="#00ADEE" stroke-width="0.5" stroke-linecap="round" stroke-linejoin="round" stroke-miterlimit="10" d="
					M12.3,81C12.3,81,12.3,81,12.3,81L12.3,81L12.3,81z"/>
			</g>
		</g>
	</g>
</g>
</svg>
