<?xml version="1.0" encoding="utf-8"?>
<!-- Generator: Adobe Illustrator 19.2.0, SVG Export Plug-In . SVG Version: 6.00 Build 0)  -->
<svg version="1.1" id="Layer_1" xmlns="http://www.w3.org/2000/svg" xmlns:xlink="http://www.w3.org/1999/xlink" x="0px" y="0px"
	 viewBox="0 0 30 23.4" style="enable-background:new 0 0 30 23.4;" xml:space="preserve">
<style type="text/css">
	.st0{fill:#404041;stroke:#FFFFFF;stroke-width:0.5;stroke-linecap:round;stroke-linejoin:round;stroke-miterlimit:10;}
	.st1{fill:none;stroke:#FFFFFF;stroke-width:0.5;stroke-linecap:round;stroke-linejoin:round;stroke-miterlimit:10;}
</style>
<g>
	<circle class="st0" cx="15" cy="11.7" r="11.4"/>
	<g>
		<path id="Dribbble" class="st1" d="M15,3.4c-4.6,0-8.3,3.7-8.3,8.3S10.4,20,15,20s8.3-3.7,8.3-8.3S19.6,3.4,15,3.4z M20.1,7.7
			c0.8,1,1.3,2.3,1.4,3.7c-0.9-0.2-1.8-0.3-2.6-0.3l0,0l0,0c-0.7,0-1.3,0.1-1.9,0.2c-0.1-0.3-0.3-0.7-0.4-1
			C17.8,9.7,19,8.9,20.1,7.7z M15,5.2c1.5,0,2.9,0.5,4,1.4c-0.8,1-2,1.7-3.2,2.3c-0.8-1.6-1.7-2.8-2.2-3.5C14.1,5.3,14.5,5.2,15,5.2
			z M12.2,5.9c0.4,0.5,1.3,1.7,2.3,3.5c-1.9,0.6-3.9,0.7-5.1,0.7H9.3l0,0c-0.2,0-0.4,0-0.5,0C9.2,8.3,10.5,6.7,12.2,5.9z M8.6,11.7
			C8.6,11.6,8.6,11.6,8.6,11.7c0.2-0.1,0.4-0.1,0.7-0.1l0,0c1.3,0,3.6-0.1,5.9-0.8c0.1,0.3,0.2,0.6,0.4,0.9
			c-1.5,0.5-2.7,1.3-3.6,2.1c-0.9,0.8-1.4,1.6-1.8,2.1C9.1,14.7,8.6,13.3,8.6,11.7z M15,18.1c-1.4,0-2.8-0.5-3.8-1.3
			c0.2-0.4,0.7-1.1,1.5-1.8c0.8-0.8,1.9-1.6,3.3-2c0.5,1.4,0.9,2.9,1.3,4.7C16.6,18,15.8,18.1,15,18.1z M18.6,17
			c-0.3-1.6-0.7-3-1.2-4.3c0.4-0.1,0.9-0.1,1.3-0.1l0,0l0,0l0,0c0.8,0,1.6,0.1,2.5,0.3C21,14.6,20,16,18.6,17z"/>
	</g>
</g>
</svg>
