<?xml version="1.0" encoding="utf-8"?>
<!-- Generator: Adobe Illustrator 19.2.0, SVG Export Plug-In . SVG Version: 6.00 Build 0)  -->
<svg version="1.1" id="Layer_1" xmlns="http://www.w3.org/2000/svg" xmlns:xlink="http://www.w3.org/1999/xlink" x="0px" y="0px"
	 viewBox="0 0 30 23.4" style="enable-background:new 0 0 30 23.4;" xml:space="preserve">
<style type="text/css">
	.st0{fill:#404041;}
	.st1{fill:none;stroke:#FFFFFF;stroke-width:0.5;stroke-linecap:round;stroke-linejoin:round;stroke-miterlimit:10;}
	.st2{fill:#404041;stroke:#FFFFFF;stroke-width:0.5;stroke-linecap:round;stroke-linejoin:round;stroke-miterlimit:10;}
	.st3{fill:none;stroke:#00ADEE;stroke-width:0.5;stroke-linecap:round;stroke-linejoin:round;stroke-miterlimit:10;}
</style>
<circle class="st0" cx="18.4" cy="13.1" r="10"/>
<g>
	<path class="st1" d="M16.4,22.9c-0.1,0-0.3,0-0.4-0.1"/>
	<path class="st1" d="M16.4,22.9c0.6,0.1,1.2,0.2,1.8,0.2c0,0,1.6,0.1,3.3-0.5"/>
	<path class="st2" d="M29.7,11.7c0-6.3-5.1-11.4-11.4-11.4S6.8,5.4,6.8,11.7c0,5.5,3.9,10.2,9.2,11.2c0-0.1,0-0.3,0-0.7
		c0-0.5,0-0.9,0-1.3L15.7,21c-0.2,0-0.5,0.1-0.8,0.1s-0.7,0-1-0.1s-0.7-0.2-1-0.4c-0.3-0.2-0.5-0.5-0.6-0.9L12,19.2
		c-0.1-0.2-0.3-0.5-0.5-0.7c-0.2-0.3-0.4-0.5-0.6-0.6l-0.1-0.1c-0.1,0-0.1-0.1-0.2-0.2c-0.1-0.1-0.1-0.1-0.1-0.2s0-0.1,0.1-0.2
		c0.1,0,0.2-0.1,0.4-0.1h0.3c0.2,0,0.4,0.2,0.7,0.3c0.3,0.2,0.5,0.4,0.7,0.8s0.5,0.7,0.8,0.9c0.3,0.2,0.6,0.3,1,0.3s0.6,0,0.8-0.1
		c0.2,0,0.5-0.1,0.7-0.2c0.1-0.7,0.3-1.2,0.7-1.5c-0.6-0.1-1.1-0.1-1.5-0.3c-0.4-0.1-0.9-0.3-1.4-0.6c-0.5-0.3-0.9-0.6-1.2-1
		s-0.6-0.9-0.8-1.5s-0.3-1.4-0.3-2.2c0-1.2,0.4-2.2,1.2-3c-0.4-0.9-0.3-1.9,0.1-3c0.3-0.1,0.7,0,1.3,0.2s1,0.4,1.2,0.6
		c0.3,0.2,0.5,0.3,0.6,0.4c0.9-0.3,1.8-0.4,2.8-0.4s1.9,0.1,2.8,0.4l0.6-0.3c0.4-0.2,0.8-0.4,1.3-0.6s0.9-0.2,1.2-0.2
		c0.4,1.1,0.5,2.1,0.1,3c0.8,0.8,1.2,1.8,1.2,3c0,0.8-0.1,1.6-0.3,2.2c-0.2,0.6-0.5,1.1-0.8,1.5c-0.3,0.4-0.7,0.7-1.2,1
		s-0.9,0.5-1.4,0.6c-0.4,0.1-0.9,0.2-1.5,0.3c0.5,0.4,0.8,1.1,0.8,2.1v2.7C26.2,21.2,29.7,16.8,29.7,11.7z"/>
</g>
<path class="st3" d="M21.5,22.6"/>
<path class="st3" d="M16.4,22.9"/>
<path class="st3" d="M21.5,22.6"/>
</svg>
