<?xml version="1.0" encoding="utf-8"?>
<!-- Generator: Adobe Illustrator 19.2.0, SVG Export Plug-In . SVG Version: 6.00 Build 0)  -->
<svg version="1.1" id="Layer_1" xmlns="http://www.w3.org/2000/svg" xmlns:xlink="http://www.w3.org/1999/xlink" x="0px" y="0px"
	 viewBox="0 0 69.4 69.4" style="enable-background:new 0 0 69.4 69.4;" xml:space="preserve">
<style type="text/css">
	.st0{fill:none;stroke:#00AEEF;stroke-miterlimit:10;}
	.st1{fill:none;stroke:#00AEEF;stroke-linecap:round;stroke-linejoin:round;stroke-miterlimit:10;}
	.st2{fill:#00AEEF;stroke:#00AEEF;stroke-miterlimit:10;}
	.st3{fill:none;stroke:#00AEEF;stroke-width:0.9336;stroke-linecap:round;stroke-linejoin:round;stroke-miterlimit:10;}
	.st4{fill:none;stroke:#00AEEF;stroke-width:0.7008;stroke-linecap:round;stroke-linejoin:round;stroke-miterlimit:10;}
</style>
<g>
	<circle class="st0" cx="34.7" cy="34.7" r="34.2"/>
	<line class="st1" x1="33.1" y1="18.6" x2="36.3" y2="18.6"/>
	<circle class="st2" cx="34.7" cy="52.8" r="1.6"/>
	<g>
		<g>
			<path class="st1" d="M41.2,22.8"/>
			<path class="st1" d="M38.9,22.8"/>
			<path class="st1" d="M41.2,24.3"/>
			<path class="st1" d="M38.9,24.3"/>
			<path class="st1" d="M41.2,25.7"/>
			<path class="st1" d="M38.9,25.7"/>
		</g>
		<path class="st1" d="M43,27.2"/>
		<path class="st1" d="M26.4,27.2"/>
		<g>
			<path class="st1" d="M44.5,35.9c0,6,0,11.9,0,17.9c0,1.2-0.8,2.1-1.8,2.3c-0.1,0-0.3,0-0.4,0c-5.1,0-10.1,0-15.2,0
				c-1.1,0-2.1-0.8-2.2-1.8c0-0.1,0-0.3,0-0.4c0-11.9,0-23.9,0-35.8c0-1.1,0.8-2.1,1.8-2.2c0.1,0,0.3,0,0.5,0c5,0,10.1,0,15.1,0
				c1.1,0,2.1,0.8,2.2,1.9c0,0.2,0,0.3,0,0.5C44.5,24,44.5,30,44.5,35.9z M44.5,35.9c0-6,0-11.9,0-17.9c0-0.2,0-0.4,0-0.5
				c-0.2-1-1.1-1.7-2.1-1.7c-2.6,0-5.2,0-7.7,0s-5,0-7.5,0c-1.2,0-2.2,0.9-2.2,2.1c0,12,0,23.9,0,35.9c0,0.2,0,0.3,0,0.5
				c0.2,1,1.1,1.7,2.1,1.7c5.1,0,10.1,0,15.2,0c1.3,0,2.2-0.9,2.2-2.2C44.5,47.8,44.5,41.9,44.5,35.9z"/>
			<path class="st3" d="M42.3,20.9c-5,0-10,0-15.1,0c0,9.5,0,19,0,28.6c0.1,0,0.1,0,0.2,0c4.9,0,9.8,0,14.7,0c0.1,0,0.2-0.1,0.2-0.2
				c0-9.4,0-18.8,0-28.2C42.3,21,42.3,21,42.3,20.9z"/>
			<path class="st4" d="M30.7,18.6c0-0.1-0.1-0.1-0.2-0.2c-0.1,0-0.2,0.1-0.2,0.2s0.1,0.1,0.2,0.1C30.7,18.7,30.7,18.7,30.7,18.6z"
				/>
		</g>
	</g>
	<line class="st3" x1="27.2" y1="20.9" x2="42.1" y2="49.5"/>
	<line class="st3" x1="42.3" y1="20.9" x2="27.3" y2="49.5"/>
</g>
</svg>
