<?xml version="1.0" encoding="utf-8"?>
<!-- Generator: Adobe Illustrator 19.2.0, SVG Export Plug-In . SVG Version: 6.00 Build 0)  -->
<svg version="1.1" id="Layer_1" xmlns="http://www.w3.org/2000/svg" xmlns:xlink="http://www.w3.org/1999/xlink" x="0px" y="0px"
	 viewBox="0 0 30 23.4" style="enable-background:new 0 0 30 23.4;" xml:space="preserve">
<style type="text/css">
	.st0{fill:#404041;stroke:#00ADEE;stroke-width:0.5;stroke-linecap:round;stroke-linejoin:round;stroke-miterlimit:10;}
	.st1{fill:none;stroke:#00ADEE;stroke-width:0.5;stroke-linecap:round;stroke-linejoin:round;stroke-miterlimit:10;}
</style>
<g>
	<circle class="st0" cx="15" cy="11.7" r="11.4"/>
	<g>
		<g>
			<path class="st1" d="M21.3,15.2c0,0.2,0,0.4-0.2,0.5l-1.8,1.8c-0.1,0.1-0.2,0.2-0.3,0.2c-0.1,0.1-0.3,0.1-0.4,0.1c0,0,0,0-0.1,0
				c0,0-0.1,0-0.2,0c-0.2,0-0.4,0-0.8-0.1s-0.8-0.2-1.4-0.4c-0.5-0.2-1.2-0.6-1.9-1c-0.7-0.5-1.4-1.1-2.2-1.9
				c-0.6-0.6-1.1-1.2-1.6-1.8c-0.4-0.6-0.7-1.1-1-1.6C9.3,10.6,9.1,10.2,9,9.8c-0.1-0.4-0.2-0.7-0.3-1S8.7,8.3,8.7,8.1
				c0-0.2,0-0.3,0-0.3c0-0.1,0.1-0.3,0.1-0.4S8.9,7.2,9,7.2l1.8-1.8c0.1-0.1,0.3-0.2,0.4-0.2c0.1,0,0.2,0,0.3,0.1s0.2,0.1,0.2,0.2
				l1.4,2.7c0.1,0.1,0.1,0.3,0.1,0.5S13.2,9,13.1,9.2l-0.7,0.7c0,0,0,0,0,0.1s0,0.1,0,0.1c0,0.2,0.1,0.4,0.2,0.6
				c0.1,0.2,0.3,0.5,0.5,0.8s0.5,0.7,1,1.1c0.4,0.4,0.8,0.7,1.1,1c0.3,0.2,0.6,0.4,0.8,0.5c0.2,0.1,0.4,0.2,0.5,0.2l0.2,0
				c0,0,0,0,0.1,0c0,0,0.1,0,0.1,0l0.8-0.8c0.2-0.1,0.3-0.2,0.6-0.2c0.2,0,0.3,0,0.4,0.1h0l2.6,1.5C21.2,14.8,21.3,15,21.3,15.2z"/>
		</g>
	</g>
</g>
</svg>
