<?xml version="1.0" encoding="utf-8"?>
<!-- Generator: Adobe Illustrator 19.2.0, SVG Export Plug-In . SVG Version: 6.00 Build 0)  -->
<svg version="1.1" id="Layer_1" xmlns="http://www.w3.org/2000/svg" xmlns:xlink="http://www.w3.org/1999/xlink" x="0px" y="0px"
	 viewBox="0 0 30 23.4" style="enable-background:new 0 0 30 23.4;" xml:space="preserve">
<style type="text/css">
	.st0{fill:#404041;stroke:#00ADEE;stroke-width:0.5;stroke-linecap:round;stroke-linejoin:round;stroke-miterlimit:10;}
	.st1{fill:none;stroke:#00ADEE;stroke-width:0.5;stroke-linecap:round;stroke-linejoin:round;stroke-miterlimit:10;}
</style>
<g>
	<circle class="st0" cx="11.8" cy="11.7" r="11.4"/>
	<g>
		<g id="XMLID_1_">
			<g>
			</g>
			<g>
				<path class="st1" d="M18,9.5l0,0.4c0,3.9-3,8.3-8.3,8.3c-1.7,0-3.2-0.5-4.5-1.3c0.2,0,0.5,0,0.7,0c1.4,0,2.6-0.5,3.6-1.3
					c-1.3,0-2.4-0.9-2.7-2c0.2,0,0.4,0.1,0.6,0.1c0.3,0,0.5,0,0.8-0.1c-1.3-0.3-2.4-1.5-2.4-2.9v0c0.4,0.2,0.8,0.4,1.3,0.4
					c-0.8-0.5-1.3-1.4-1.3-2.4c0-0.5,0.1-1,0.4-1.5c1.4,1.8,3.6,2.9,6,3.1c-0.1-0.2-0.1-0.4-0.1-0.7c0-1.6,1.3-2.9,2.9-2.9
					c0.8,0,1.6,0.4,2.1,0.9c0.7-0.1,1.3-0.4,1.9-0.7c-0.2,0.7-0.7,1.3-1.3,1.6C18.4,8.4,19,8.2,19.5,8C19.1,8.6,18.6,9.1,18,9.5z"/>
			</g>
		</g>
	</g>
</g>
</svg>
