<?xml version="1.0" encoding="utf-8"?>
<!-- Generator: Adobe Illustrator 19.2.0, SVG Export Plug-In . SVG Version: 6.00 Build 0)  -->
<svg version="1.1" id="Layer_1" xmlns="http://www.w3.org/2000/svg" xmlns:xlink="http://www.w3.org/1999/xlink" x="0px" y="0px"
	 viewBox="0 0 69.4 69.4" style="enable-background:new 0 0 69.4 69.4;" xml:space="preserve">
<style type="text/css">
	.st0{fill:none;stroke:#00AEEF;stroke-linecap:round;stroke-linejoin:round;stroke-miterlimit:10;}
</style>
<circle class="st0" cx="34.7" cy="34.7" r="34.2"/>
<g>
	<line class="st0" x1="22" y1="31.9" x2="26.6" y2="28.6"/>
	<line class="st0" x1="24.6" y1="32.6" x2="26.7" y2="31"/>
	<circle class="st0" cx="34.7" cy="35.4" r="18.5"/>
	<path class="st0" d="M26.9,43.7c0,0,0.7,5.1,7.8,5.1s7.8-5.1,7.8-5.1"/>
	<path class="st0" d="M43.9,40.8H25.6c-3.4,0-6.2-2.8-6.2-6.2v-2.5c0-3.4,2.8-6.2,6.2-6.2H44c3.4,0,6.2,2.8,6.2,6.2v2.5
		C50.1,38,47.3,40.8,43.9,40.8z"/>
	<path class="st0" d="M36.6,25.8h-3.4v-7.9c0-0.5,0.4-0.9,0.9-0.9h1.7c0.4,0,0.8,0.4,0.8,0.8V25.8z"/>
	<path class="st0" d="M16.3,35.9h3v-4.4h-1.2c-1,0-1.8,0.8-1.8,1.8V35.9z"/>
	<path class="st0" d="M50.1,35.9h3v-2.6c0-1-0.8-1.8-1.8-1.8h-1.2V35.9z"/>
</g>
</svg>
