<?xml version="1.0" encoding="utf-8"?>
<!-- Generator: Adobe Illustrator 19.2.0, SVG Export Plug-In . SVG Version: 6.00 Build 0)  -->
<svg version="1.1" id="Layer_1" xmlns="http://www.w3.org/2000/svg" xmlns:xlink="http://www.w3.org/1999/xlink" x="0px" y="0px"
	 viewBox="0 0 30 23.4" style="enable-background:new 0 0 30 23.4;" xml:space="preserve">
<style type="text/css">
	.st0{fill:#404041;stroke:#00ADEE;stroke-width:0.5;stroke-linecap:round;stroke-linejoin:round;stroke-miterlimit:10;}
</style>
<circle class="st0" cx="18.3" cy="11.7" r="11.4"/>
<g>
	<path class="st0" d="M25,8.9c-0.2-0.7-0.8-1.3-1.5-1.4c-1.7-0.2-3.5-0.2-5.3-0.2c-1.8,0-3.5,0-5.3,0.2c-0.7,0.1-1.3,0.6-1.5,1.4
		c-0.2,1.1-0.2,2.2-0.2,3.3s0,2.3,0.2,3.3c0.2,0.7,0.8,1.3,1.5,1.4c1.7,0.2,3.5,0.2,5.3,0.2c1.8,0,3.5,0,5.3-0.2
		c0.7-0.1,1.3-0.6,1.5-1.4c0.2-1.1,0.2-2.2,0.2-3.3C25.3,11.1,25.3,9.9,25,8.9z M16.4,14.4c0-1.6,0-3.1,0-4.6c1.5,0.8,3,1.5,4.5,2.3
		C19.4,12.8,17.9,13.6,16.4,14.4z"/>
</g>
</svg>
