<?xml version="1.0" encoding="utf-8"?>
<!-- Generator: Adobe Illustrator 19.2.0, SVG Export Plug-In . SVG Version: 6.00 Build 0)  -->
<svg version="1.1" id="Layer_1" xmlns="http://www.w3.org/2000/svg" xmlns:xlink="http://www.w3.org/1999/xlink" x="0px" y="0px"
	 viewBox="0 0 44.6 44.6" style="enable-background:new 0 0 44.6 44.6;" xml:space="preserve">
<style type="text/css">
	.st0{fill:#00AEEF;stroke:#404041;stroke-linecap:round;stroke-linejoin:round;stroke-miterlimit:10;}
	.st1{fill:none;stroke:#00AEEF;stroke-linecap:round;stroke-linejoin:round;stroke-miterlimit:10;}
	.st2{fill:#404041;stroke:#404041;stroke-linecap:round;stroke-linejoin:round;stroke-miterlimit:10;}
	.st3{fill:none;stroke:#404041;stroke-linecap:round;stroke-linejoin:round;stroke-miterlimit:10;}
</style>
<circle class="st0" cx="18.9" cy="18.9" r="12.8"/>
<path class="st0" d="M30.7,18.9c0-3.2-1.1-6-3.4-8.3c-2.3-2.3-5.1-3.4-8.3-3.4c-3.2,0-6,1.1-8.3,3.4s-3.4,5.1-3.4,8.3
	c0,3.2,1.1,6,3.4,8.3s5.1,3.4,8.3,3.4c3.2,0,6-1.1,8.3-3.4S30.7,22.2,30.7,18.9L30.7,18.9z M44.1,40.8c0,0.9-0.3,1.7-1,2.4
	c-0.7,0.7-1.4,1-2.4,1c-0.9,0-1.7-0.3-2.4-1l-9-9c-3.1,2.2-6.6,3.2-10.5,3.2c-2.5,0-4.9-0.5-7.2-1.5S7.5,33.7,5.9,32
	c-1.7-1.7-3-3.6-3.9-5.9s-1.5-4.7-1.5-7.2S1,14.1,2,11.8s2.3-4.2,3.9-5.9s3.6-3,5.9-3.9s4.7-1.5,7.2-1.5c2.5,0,4.9,0.5,7.2,1.5
	s4.2,2.3,5.9,3.9c1.7,1.7,3,3.6,3.9,5.9s1.5,4.7,1.5,7.2c0,3.8-1.1,7.3-3.2,10.5l9,9C43.8,39,44.1,39.8,44.1,40.8L44.1,40.8z"/>
<circle class="st1" cx="-10.7" cy="-64.2" r="34.2"/>
<line class="st2" x1="18.9" y1="14.1" x2="18.9" y2="23.8"/>
<line class="st3" x1="14.1" y1="18.9" x2="23.8" y2="18.9"/>
</svg>
